/* XPM */
static char *Free_Converter_com_1466286981_code_64925636[] = {
/* columns rows colors chars-per-pixel */
"128 128 24 1 ",
"  c #2B3232",
". c #2D3233",
"X c #2D3333",
"o c #2E3233",
"O c #2F3233",
"+ c #2E3333",
"@ c #2F3333",
"# c #2D3134",
"$ c #2E3134",
"% c #2D3235",
"& c #2E3334",
"* c #2F3334",
"= c #2E3235",
"- c #2F3235",
"; c #2E3335",
": c #2F3335",
"> c #2D3434",
", c #2D3435",
"< c #2E3434",
"1 c #2F3434",
"2 c #2E3435",
"3 c #2F3435",
"4 c #303535",
"5 c None",
/* pixels */
"55555555555555555555555555555555555555555555555555555555555555555555555555555555555555555555555555555555555555555555555555555555",
"55555555555555555555555555555555555555555555555555555555555555555555555555555555555555555555555555555555555555555555555555555555",
"55555555555555555555555555555555555555555555555555555555555555555555555555555555555555555555555555555555555555555555555555555555",
"55555555555555555555555555555555555555555555555555555555555555555555555555555555555555555555555555555555555555555555555555555555",
"55555555555555555555555555555555555555555555555555555555555555555555555555555555555555555555555555555555555555555555555555555555",
"55555555555555555555555555555555555555555555555555555555555555555555555555555555555555555555555555555555555555555555555555555555",
"55555555555555555555555555555555555555555555555555555555555555555555555555555555555555555555555555555555555555555555555555555555",
"55555555555555555555555555555555555555555555555555555555555555555555555555555555555555555555555555555555555555555555555555555555",
"55555555555555555555555555555555555555555555555555555555555555555555555555555555555555555555555555555555555555555555555555555555",
"55555555555555555555555555555555555555555555555555555555555555555555555555555555555555555555555555555555555555555555555555555555",
"55555555555555555555555555555555555555555555555555555555555555555555555555555555555555555555555555555555555555555555555555555555",
"55555555555555555555555555555555555555555555555555555555555555555555555555555555555555555555555555555555555555555555555555555555",
"55555555555555555555555555555555555555555555555555555555555555555555555555555555555555555555555555555555555555555555555555555555",
"55555555555555555555555555555555555555555555555555555555555555555555555555555555555555555555555555555555555555555555555555555555",
"55555555555555555555555555555555555555555555555555555555555555555555555555555555555555555555555555555555555555555555555555555555",
"55555555555555555555555555555555555555555555555555555555555555555555555555555555555555555555555555555555555555555555555555555555",
"55555555555555555555555555555555555555555555555555555555555555555555555555555555555555555555555555555555555555555555555555555555",
"55555555555555555555555555555555555555555555555555555555555555555555555555555555555555355555555555555555555555555555555555555555",
"5555555555555555555555555555555555555555555555555555555555555555555555555555555555555333&555555555555555555555555555555555555555",
"55555555555555555555555555555555555555555555555555555555555555555555555555555555555553333335555555555555555555555555555555555555",
"5555555555555555555555555555555555555555555555555555555555555555555555555555555555553333333+555555555555555555555555555555555555",
"55555555555555555555555555555555555555555555555555555555555555555555555555555555555&33333333355555555555555555555555555555555555",
"555555555555555555555555555555555555555555555555555555555555555555555555555555555553333333-&555555555555555555555555555555555555",
"5555555555555555555555555555555555555555555555555555555555555555555555555555555555&333333345555555555555555555555555555555555555",
"5555555555555555555555555555555555555555555555555555555555555555555555555555555555&&33333335555555555555555555555555555555555555",
"555555555555555555555555555555555555555555555555555555555555555555555555555555555&&433333355555555555555555555555555555555555555",
"555555555555555555555555555555555555555555555555555555555555555555555555555555555&4&33333355555555555555555555555555555555555555",
"5555555555555555555555555555555555555555555555555555555555555555555555555555555534&433333555555555555555555555555555555555555555",
"5555555555555555555555555555555555555555555555555555555555555555555555555555555533333333&555555555555555555555555555555555555555",
"5555555555555555555555555555555555555555555555555555555555555555555555555555555+333333335555555555555555555555555555555555555555",
"555555555555555555555555555555555555555555555555555555555555555555555555555555543333333&5555555555555555555555555555555555555555",
"555555555555555555555555555555555555555555555555555555555555555555555555555555&-333333355555555555555555555555555555555555555555",
"55555555555555555555555555555555555555555555555555555555555555555555555555555433333333355555555555555555555555555555555555555555",
"5555555555555555555555555555555553+555555555555555555555555555555555555555555-33333&335555555&3555555555555555555555555555555555",
"55555555555555555555555555555555333+5555555555555555555555555555555555555555&33333&435555555&-3155555555555555555555555555555555",
"555555555555555555555555555555513333+5555555555555555555555555555555555555553333334&&555555&343335555555555555555555555555555555",
"5555555555555555555555555555551333333+5555555555555555555555555555555555555&33333333555555-4333331555555555555555555555555555555",
"55555555555555555555555555555333333333+5555555555555555555555555555555555554333333&455555-4&333333355555555555555555555555555555",
"555555555555555555555555555533333333333555555555555555555555555555555555553333333335555553&4333333315555555555555555555555555555",
"55555555555555555555555555533333333333&5555555555555555555555555555555555533333334-55555533&333333333555555555555555555555555555",
"55555555555555555555555555433333&4&44-55555555555555555555555555555555555-4&3333335555555533333333333155555555555555555555555555",
"55555555555555555555555554&333333&4-&5555555555555555555555555555555555553&433333&5555555553333333333335555555555555555555555555",
"55555555555555555555555533333333334&55555555555555555555555555555555555522333333&55555555555>33333333331555555555555555555555555",
"5555555555555555555555533333333333-555555555555555555555555555555555555333333333-55555555555533333333333355555555555555555555555",
"555555555555555555555533333333333-555555555555555555555555555555555555533333&4&+555555555555551333333333315555555555555555555555",
"55555555555555555555533333333333-5555555555555555555555555555555555555+333334&45555555555555555333333333333555555555555555555555",
"5555555555555555555533333333333-55555555555555555555555555555555555555333333&415555555555555555513333333333155555555555555555555",
"555555555555555555533333333333-55555555555555555555555555555555555555+33333&4&55555555555555555553333333333335555555555555555555",
"55555555555555555522333333333-55555555555555555555555555555555555555533333333355555555555555555555133333333331555555555555555555",
"5555555555555555523333333333-555555555555555555555555555555555555555+33333333555555555555555555555533333333333355555555555555555",
"555555555555555522333333333-55555555555555555555555555555555555555553333333&+55555555555555555555555>333333333315555555555555555",
"55555555555555522233333333-555555555555555555555555555555555555555533333333+5555555555555555555555555>33333333333555555555555555",
"5555555555555523333333333-555555555555555555555555555555555555555553333333315555555555555555555555555533333333333155555555555555",
"555555555555522333333333-55555555555555555555555555555555555555555+3333333355555555555555555555555555553333333333335555555555555",
"55555555555522333333333-55555555555555555555555555555555555555555333333333-55555555555555555555555555555133333333331555555555555",
"5555555555523233333333-555555555555555555555555555555555555555555333333333555555555555555555555555555555513333333333355555555555",
"555555555533333333333-555555555555555555555555555555555555555555&333333335555555555555555555555555555555553333333333315555555555",
"555555555&3333333333-55555555555555555555555555555555555555555553333333335555555555555555555555555555555555333333333333555555555",
"5555555533333333333-5555555555555555555555555555555555555555555&33333333555555555555555555555555555555555555>3333333333455555555",
"5555555&3333333&33-5555555555555555555555555555555555555555555543333333355555555555555555555555555555555555553333333333335555555",
"555555&3333333&43-55555555555555555555555555555555555555555555&-3333333555555555555555555555555555555555555555133333333331555555",
"55555&333333334&-5555555555555555555555555555555555555555555553333333&&555555555555555555555555555555555555555533333333333355555",
"5555&3333333333&55555555555555555555555555555555555555555555533333333&5555555555555555555555555555555555555555551333333333315555",
"555&3333333333&555555555555555555555555555555555555555555555333333333&5555555555555555555555555555555555555555555 33333333333555",
"55533&4&333333 55555555555555555555555555555555555555555555533333333455555555555555555555555555555555555555555555&&&33333333&555",
"555534&4333333315555555555555555555555555555555555555555555&33333333-5555555555555555555555555555555555555555555@44-333333&&5555",
"5555534&333333333555555555555555555555555555555555555555555&3333333&5555555555555555555555555555555555555555555+333333333&&55555",
"555555&&333333333355555555555555555555555555555555555555554333333335555555555555555555555555555555555555555555@4333333333&555555",
"5555555&3333333333>55555555555555555555555555555555555555533333333&555555555555555555555555555555555555555555+3333333333&5555555",
"555555553333333333335555555555555555555555555555555555555&33333333555555555555555555555555555555555555555555+333333333&&55555555",
"55555555533333333333155555555555555555555555555555555555533333333355555555555555555555555555555555555555555+33333333333555555555",
"55555555551333333333335555555555555555555555555555555555&3333333355555555555555555555555555555555555555555@333333333335555555555",
"5555555555533333333333>55555555555555555555555555555555533333323&5555555555555555555555555555555555555555+-433333333355555555555",
"5555555555551333333333335555555555555555555555555555555&333333225555555555555555555555555555555555555555@43333333333555555555555",
"555555555555533333333333155555555555555555555555555555333333333&555555555555555555555555555555555555555+333333333335555555555555",
"555555555555551333333333335555555555555555555555555555&3333333&555555555555555555555555555555555555555@3333333333355555555555555",
"55555555555555533333333333>55555555555555555555555555&33333322555555555555555555555555555555555555555@33333333333555555555555555",
"555555555555555513333333333>5555555555555555555555555&3333333255555555555555555555555555555555555555+433333333335555555555555555",
"555555555555555553333333333335555555555555555555555533333333355555555555555555555555555555555555555+-333333333355555555555555555",
"55555555555555555513333333333355555555555555555555553333333&&5555555555555555555555555555555555555@44333333333555555555555555555",
"555555555555555555533333333333155555555555555555555+&33333335555555555555555555555555555555555555&333333333335555555555555555555",
"555555555555555555551333333333315555555555555555555333333333555555555555555555555555555555555555+3333333333355555555555555555555",
"55555555555555555555533333333333355555555555555555333333&43555555555555555555555555555555555555+33333333333555555555555555555555",
"555555555555555555555513333333333355555555555555553333334&&55555555555555555555555555555555555@433333333335555555555555555555555",
"5555555555555555555555533333333333>555555555555553333333&355555555555555555555555555555555555+3333333333355555555555555555555555",
"55555555555555555555555513333333333>555555555555333333332:5555555555555555555555555555555555+33333333333555555555555555555555555",
"5555555555555555555555555333333333333555555555553333333325555555555555555555555555555555555+333333333335555555555555555555555555",
"555555555555555555555555551333333333315555555553333333335555555555555555555555555555555555@3333333333355555555555555555555555555",
"55555555555555555555555555533333333333355555555333333333555555555555555555555555555555555&-4333333333555555555555555555555555555",
"55555555555555555555555555551333333333355555553333333335555555555555555555555555555555555433333333335555555555555555555555555555",
"555555555555555555555555555553333333333555555533333333+5555555555555555555555555555555555+33333333355555555555555555555555555555",
"555555555555555555555555555555133333315555555&33333333555555555555555555555555555555555555&3333333555555555555555555555555555555",
"5555555555555555555555555555555333333555555553333333335555555555555555555555555555555555555+333335555555555555555555555555555555",
"55555555555555555555555555555555133155555555+33333333555555555555555555555555555555555555555+33355555555555555555555555555555555",
"555555555555555555555555555555555315555555553333334-&5555555555555555555555555555555555555555+3555555555555555555555555555555555",
"5555555555555555555555555555555555555555555+3333333&5555555555555555555555555555555555555555555555555555555555555555555555555555",
"55555555555555555555555555555555555555555533333333&35555555555555555555555555555555555555555555555555555555555555555555555555555",
"55555555555555555555555555555555555555555533333333&55555555555555555555555555555555555555555555555555555555555555555555555555555",
"5555555555555555555555555555555555555555533333333&555555555555555555555555555555555555555555555555555555555555555555555555555555",
"5555555555555555555555555555555555555555533333333&555555555555555555555555555555555555555555555555555555555555555555555555555555",
"55555555555555555555555555555555555555553333333335555555555555555555555555555555555555555555555555555555555555555555555555555555",
"555555555555555555555555555555555555555533333333&5555555555555555555555555555555555555555555555555555555555555555555555555555555",
"55555555555555555555555555555555555555533333333355555555555555555555555555555555555555555555555555555555555555555555555555555555",
"55555555555555555555555555555555555555543333333355555555555555555555555555555555555555555555555555555555555555555555555555555555",
"55555555555555555555555555555555555555&-333333+555555555555555555555555555555555555555555555555555555555555555555555555555555555",
"5555555555555555555555555555555555555&4&333333&555555555555555555555555555555555555555555555555555555555555555555555555555555555",
"55555555555555555555555555555555555554&43333335555555555555555555555555555555555555555555555555555555555555555555555555555555555",
"5555555555555555555555555555555555555-4&3333335555555555555555555555555555555555555555555555555555555555555555555555555555555555",
"55555555555555555555555555555555555555533333355555555555555555555555555555555555555555555555555555555555555555555555555555555555",
"55555555555555555555555555555555555555555+33555555555555555555555555555555555555555555555555555555555555555555555555555555555555",
"55555555555555555555555555555555555555555553555555555555555555555555555555555555555555555555555555555555555555555555555555555555",
"55555555555555555555555555555555555555555555555555555555555555555555555555555555555555555555555555555555555555555555555555555555",
"55555555555555555555555555555555555555555555555555555555555555555555555555555555555555555555555555555555555555555555555555555555",
"55555555555555555555555555555555555555555555555555555555555555555555555555555555555555555555555555555555555555555555555555555555",
"55555555555555555555555555555555555555555555555555555555555555555555555555555555555555555555555555555555555555555555555555555555",
"55555555555555555555555555555555555555555555555555555555555555555555555555555555555555555555555555555555555555555555555555555555",
"55555555555555555555555555555555555555555555555555555555555555555555555555555555555555555555555555555555555555555555555555555555",
"55555555555555555555555555555555555555555555555555555555555555555555555555555555555555555555555555555555555555555555555555555555",
"55555555555555555555555555555555555555555555555555555555555555555555555555555555555555555555555555555555555555555555555555555555",
"55555555555555555555555555555555555555555555555555555555555555555555555555555555555555555555555555555555555555555555555555555555",
"55555555555555555555555555555555555555555555555555555555555555555555555555555555555555555555555555555555555555555555555555555555",
"55555555555555555555555555555555555555555555555555555555555555555555555555555555555555555555555555555555555555555555555555555555",
"55555555555555555555555555555555555555555555555555555555555555555555555555555555555555555555555555555555555555555555555555555555",
"55555555555555555555555555555555555555555555555555555555555555555555555555555555555555555555555555555555555555555555555555555555",
"55555555555555555555555555555555555555555555555555555555555555555555555555555555555555555555555555555555555555555555555555555555",
"55555555555555555555555555555555555555555555555555555555555555555555555555555555555555555555555555555555555555555555555555555555",
"55555555555555555555555555555555555555555555555555555555555555555555555555555555555555555555555555555555555555555555555555555555",
"55555555555555555555555555555555555555555555555555555555555555555555555555555555555555555555555555555555555555555555555555555555"
};
