/* XPM */
static char *Free_Converter_com_1466287319_gnome_application_exit_64_7990312[] = {
/* columns rows colors chars-per-pixel */
"64 64 256 2 ",
"   c #010101",
".  c #060904",
"X  c #090D06",
"o  c #0C1107",
"O  c #0E1509",
"+  c #121B0B",
"@  c #111E03",
"#  c #1A1C1D",
"$  c #16220E",
"%  c #192510",
"&  c #1D2B12",
"*  c #223416",
"=  c #263918",
"-  c #293E1A",
";  c #1D2123",
":  c #232424",
">  c #252A24",
",  c #2B2D2B",
"<  c #2B3B22",
"1  c #2F302F",
"2  c #30322F",
"3  c #292F30",
"4  c #2E3436",
"5  c #333534",
"6  c #303836",
"7  c #373938",
"8  c #3A3D3A",
"9  c #422D2D",
"0  c #2A4D08",
"q  c #2E520A",
"w  c #31560C",
"e  c #345B0E",
"r  c #2D441C",
"t  c #30471F",
"y  c #365E10",
"u  c #376010",
"i  c #3B6512",
"p  c #3F6A15",
"a  c #2E4125",
"s  c #314527",
"d  c #334C20",
"f  c #344728",
"g  c #354B29",
"h  c #394F2B",
"j  c #365223",
"k  c #395625",
"l  c #3C5B27",
"z  c #3B542D",
"x  c #3F5D2A",
"c  c #3E413C",
"v  c #3A4C35",
"b  c #416E16",
"n  c #427017",
"m  c #457419",
"M  c #47781A",
"N  c #4A7C1D",
"B  c #41463C",
"V  c #444B3E",
"C  c #415C31",
"Z  c #4C5E3F",
"A  c #43642B",
"S  c #476A2E",
"D  c #496D2F",
"F  c #486632",
"G  c #496A31",
"H  c #4E7532",
"J  c #507636",
"K  c #527E30",
"L  c #577C3E",
"P  c #52733C",
"I  c #3E4040",
"U  c #424442",
"Y  c #474C43",
"T  c #424748",
"R  c #4B4D4A",
"E  c #475040",
"W  c #4A5442",
"Q  c #4D5944",
"!  c #4F514E",
"~  c #535451",
"^  c #555957",
"/  c #5A5D5B",
"(  c #6C5955",
")  c #556948",
"_  c #567143",
"`  c #61625F",
"'  c #5E6360",
"]  c #626762",
"[  c #666864",
"{  c #686966",
"}  c #6C6E6A",
"|  c #6F7B66",
" . c #6E726B",
".. c #6D7B68",
"X. c #707D6B",
"o. c #747571",
"O. c #777974",
"+. c #797B77",
"@. c #7B7D7A",
"#. c #8C1718",
"$. c #811B1C",
"%. c #901618",
"&. c #9D1214",
"*. c #A60F11",
"=. c #AA0F11",
"-. c #A61113",
";. c #AA1214",
":. c #A71618",
">. c #AA1618",
",. c #AC1D1E",
"<. c #B11618",
"1. c #B71819",
"2. c #BC1B1C",
"3. c #BD1F20",
"4. c #AF2628",
"5. c #AD2123",
"6. c #B32022",
"7. c #B92627",
"8. c #B02E2F",
"9. c #BF2C2D",
"0. c #AE3D3E",
"q. c #B33334",
"w. c #D90101",
"e. c #DA0B0B",
"r. c #C81E1F",
"t. c #C01A1B",
"y. c #DB1515",
"u. c #DC1C1C",
"i. c #E50808",
"p. c #EB0C0C",
"a. c #EC1212",
"s. c #E51C1C",
"d. c #EC1A1A",
"f. c #F11212",
"g. c #F81515",
"h. c #C02021",
"j. c #C82122",
"k. c #CB2C2C",
"l. c #D02727",
"z. c #DE2525",
"x. c #D22728",
"c. c #D52A2B",
"v. c #DF2D2D",
"b. c #CE2F31",
"n. c #D62F30",
"m. c #CC3536",
"M. c #D33334",
"N. c #DD3434",
"B. c #DE3B3B",
"V. c #ED2323",
"C. c #ED2B2B",
"Z. c #E22222",
"A. c #F22525",
"S. c #FC2C2C",
"D. c #F92626",
"F. c #E03333",
"G. c #E13B3B",
"H. c #F33232",
"J. c #FF3434",
"K. c #F43D3D",
"L. c #FF3D3D",
"P. c #874E45",
"I. c #B74445",
"U. c #BA4C4D",
"Y. c #B55857",
"T. c #B75453",
"R. c #B86866",
"E. c #BC7B79",
"W. c #E64142",
"Q. c #EB4343",
"!. c #EB4C4D",
"~. c #F34242",
"^. c #FC4141",
"/. c #F44949",
"(. c #FF4B4B",
"). c #FF5151",
"_. c #FE5D5D",
"`. c #F35657",
"'. c #C26666",
"]. c #C87777",
"[. c #F76060",
"{. c #FE6262",
"}. c #FF6868",
"|. c #4D811F",
" X c #4F8420",
".X c #518621",
"XX c #558C23",
"oX c #599326",
"OX c #5C9728",
"+X c #608049",
"@X c #6B8657",
"#X c #6E8063",
"$X c #789365",
"%X c #81837E",
"&X c #879B79",
"*X c #858683",
"=X c #888A86",
"-X c #8C8E89",
";X c #858883",
":X c #8E908B",
">X c #91938E",
",X c #919B8A",
"<X c #929590",
"1X c #979996",
"2X c #999C97",
"3X c #9C9E9B",
"4X c #9DA19A",
"5X c #A1A39F",
"6X c #A6B699",
"7X c #A7AAA3",
"8X c #A9ACA5",
"9X c #ADAFAA",
"0X c #A3A5A0",
"qX c #B5B7AC",
"wX c #B6B9B2",
"eX c #B9BCB5",
"rX c #BCBDB9",
"tX c #B5B5B3",
"yX c #CE8C8B",
"uX c #C2918F",
"iX c #C49492",
"pX c #D49D9D",
"aX c #C7A3A0",
"sX c #CBACA9",
"dX c #D7A7A6",
"fX c #DAAEAD",
"gX c #CEB1AD",
"hX c #C0B8B2",
"jX c #BDC0BA",
"kX c #C2C4BE",
"lX c #D4C0BD",
"zX c #C6C8C3",
"xX c #CBCDC7",
"cX c #CDCECB",
"vX c #C4C6C2",
"bX c #DFC1C0",
"nX c #D9C9C6",
"mX c #CFD1CC",
"MX c #D2D6CF",
"NX c #D3D5D1",
"BX c #D8D9D5",
"VX c #DCDDDA",
"CX c #DED5D2",
"ZX c #E6D6D4",
"AX c #E1D9D6",
"SX c #E1E1DE",
"DX c #E5E6E3",
"FX c #E9E3E1",
"GX c #E7E8E6",
"HX c #EDEDEB",
"JX c #E9EAE6",
"KX c #EFF0EE",
"LX c #F4F4F3",
"PX c #F8F8F7",
"IX c #F8F8F8",
"UX c None",
/* pixels */
"UXUXUXUXUXUXUXUXUXUXUXUXUXUXUXUXUXUXUXUXUXUXUXUXUXUXUXUXUXUXUXUXUXUXUXUXUXUXUXUXUXUXUXUXUXUXUXUXUXUXUXUXUXUXUXUXUXUXUXUXUXUXUXUX",
"UXUXUXUXUXUXUXUXUXUXUXUXUXUXUXUXUXUXUXUXUXUXUXUXUXUXUXUXUXUXUXUXUXUXUXUXUXUXUXUXUXUXUXUXUXUXUXUXUXUXUXUXUXUXUXUXUXUXUXUXUXUXUXUX",
"UXUXUXUXUXUXUXUXUXUXUXUXUXUXUXUXUXUXUXUXUXUXUXUXUXUXUXUXUXUXUXUXUXUXUXUXUXUXUXUXUXUXUXUXUXUXUXUXUXUXUXUXUXUXUXUXUXUXUXUXUXUXUXUX",
"UXUXUXUXUXUXUXUXUXUXUXUXUXUXUXUXUXUXUXUXUXUXUXUXUXUXUXUXUXUXUXUXUXUXUXUXUXUXUXUXUXUXUXUXUXUXUXUXUXUXUXUXUXUXUXUXUXUXUXUXUXUXUXUX",
"UXUXUXUXUXUXUXUXUXUXUXUXUXUXUXUXUXUXUXUXUXUXUXUXUXUXUXUXUXUXUXUXUXUXUXUXUXUXUXUXUXUXUXUXUXUXUXUXUXUXUXUXUXUXUXUXUXUXUXUXUXUXUXUX",
"UXUXUXUXUXUXUXUXUXUXUXUXUXUXUXUXUXUX4 4 6 4 4 4 4 4 4 4 4 4 4 4 4 4 4 5 4 4 7 4 4 4 4 4 4 4 4 4 4 4 4 4 4 4 UXUXUXUXUXUXUXUXUXUX",
"UXUXUXUXUXUXUXUXUXUXUXUXUXUXUXUXUX4 T ' / / ^ R Y U U I c 8 8 8 7 7 4 5 5 2 1 1 , , : # # # # # # : ; ; : 4 4 UXUXUXUXUXUXUXUXUX",
"UXUXUXUXUXUXUXUXUXUXUXUXUXUXUXUXUX4 ' MXmXxXkXwX;X/ ~ ~ ~ R R T U U U 8 7 7 5 2 1 , #                   @ > 4 UXUXUXUXUXUXUXUXUX",
"UXUXUXUXUXUXUXUXUXUXUXUXUXUXUXUXUX4 ' MXKXHXHXHXKXFXtX*X@.@.+.+.o.o.} } { { { { { T ;                   0 < 4 UXUXUXUXUXUXUXUXUX",
"UXUXUXUXUXUXUXUXUXUXUXUXUXUXUXUXUX4 ' MXHXKXHXKXHXKXGXSXtX>X=X*X*X%X@.+.o.o.o.o.o.! :                   0 < 4 UXUXUXUXUXUXUXUXUX",
"UXUXUXUXUXUXUXUXUXUXUXUXUXUXUXUXUX4 ' MXHXHXHXHXKXHXHXDXDXBXrX1X>X:X-X=X*X*X$X%X3X} >                   0 < 4 UXUXUXUXUXUXUXUXUX",
"UXUXUXUXUXUXUXUXUXUXUXUXUXUXUXUXUX6 ' NXKXHXKXHXKXHXGXDXDXVXBXmXhX0X2X1X<X>X>X:X9X+., . .   .     . .   0 < 4 UXUXUXUXUXUXUXUXUX",
"UXUXUXUXUXUXUXUXUXUXUXUXUXUXUXUXUX4 ' NXHXKXKXHXHXKXGXGXSXVXBXNXNXxXrX8X5X3X2X2XkX*X2 . . . . . . . . . q < 4 UXUXUXUXUXUXUXUXUX",
"UXUXUXUXUXUXUXUXUXUXUXUXUXUXUXUXUX4 ] NXHXHXHXHXHXHXHXFXSXVXBXNXmXxXvXkXeX9X7X7XcX>X5 . . . . . . X X . w < 4 UXUXUXUXUXUXUXUXUX",
"UXUXUXUXUXUXUXUXUXUXUXUXUXUXUXUXUX4 ] NXHXKXKXHXHXHXGXGXSXVXBXNXmXxXvXkXrXeXwXwXAX3X7 X X o X X X X X X w < 4 UXUXUXUXUXUXUXUXUX",
"UXUXUXUXUXUXUXUXUXUXUXUXUXUXUXUXUX4 ] NXHXHXHXHXKXKXGXDXSXVXBXNXmXxXvXvXjXeXwXwXDX3X8 o o o o o o o o o e < 4 UXUXUXUXUXUXUXUXUX",
"UXUXUXUXUXUXUXUXUXUXUXUXUXUXUXUXUX4 ] MXHXHXHXKXHXHXHXDXSXVXBXNXmXxXzXkXjXeXwXwXSX3X8 O O O O O O O O o e < 4 UXUXUXUXUXUXUXUXUX",
"UXUXUXUXUXUXUXUXUXUXUXUXUXUXUXUXUX5 ] MXHXKXKXHXHXKXJXFXDXVXBXNXmXcXzXkXjXeXwXwXSX3Xc O O O O O O O O O y a 4 UXUXUXUXUXUXUXUXUX",
"UXUXUXUXUXUXUXUXUXUXUXUXUXUXUXUXUX$.( MXKXHXHXHXHXHXJXDXSXVXBXNXmXxXzXkXjXeXwXwXSX3Xc + + + + + + O + + y < 4 UXUXUXUXUXUXUXUXUX",
"UXUXUXUXUXUXUXUXUXUXUXUXUXUXUXUXUX&.*.sXHXHXKXHXHXHXHXDXSXVXBXNXmXxXzXjXjXeXwXwXSX3Xc + + + + + + $ + + y a 4 UXUXUXUXUXUXUXUXUX",
"UXUXUXUXUXUXUXUXUXUXUXUXUXUXUXUXUX%.*.>.fXHXHXKXKXHXJXFXSXVXBXNXmXxXzXkXjXeXwXwXSX3Xc $ $ $ + + $ $ $ $ y a 4 UXUXUXUXUXUXUXUXUX",
"UXUXUXUXUXUXUXUXUXUXUXUXUXUXUXUXUX#.k.k.;.pXHXHXHXHXJXGXSXVXBXNXmXxXzXkXjXeXwXwXSX3Xc $ % % % % $ % % $ i a 4 UXUXUXUXUXUXUXUXUX",
"UXUXUXUXUXUXUXUXUXUXUXUXUXUXUXUXUX#.k._.M.-.yXKXHXKXJXDXSXVXBXNXmXxXzXkXjXeXwXwXSX4Xc % % % % % % % % % i s 4 UXUXUXUXUXUXUXUXUX",
"UXUXUXUXUXUXUXUXUXUXUXUXUXUXUXUXUX#.k._._.B.;.].HXHXHXFXSXVXBXNXmXxXzXkXjXeXwXwXSX4Xc & % & % & & % & % i s 4 UXUXUXUXUXUXUXUXUX",
"UXUXUXUXUXUXUXUXUXUXUXUXUXUXUXUXUX#.k._.L._.W.>.'.HXJXFXSXVXBXNXmXxXzXkXjXjXwXwXSX3Xc & & & & & & & & & i f 4 UXUXUXUXUXUXUXUXUX",
"UXUXUXUXUXUXUXUXUXUXUXUXUXUXUXUXUX#.k.{.S.L.{.!.;.T.FXDXSXVXBXNXmXxXzXkXjX:X-XwXSX4Xv * * & & & * & & & p f 4 UXUXUXUXUXUXUXUXUX",
"UXUXUXUXUXUXUXUXUXUXUXUXUXUXUXUXUX*.b.{.J.J.L.{.`.<.I.AXSXVXBXNXmXxXzXkXjX%Xo.O.SX4Xc * * & * * * & * * p f 4 UXUXUXUXUXUXUXUXUX",
"UXUXUX*.=.=.;.;.;.;.;.;.;.;.;.;.;.;.b.}.J.J.J.L.{.`.6.q.NXVXBXNXmXcXzXkXjXO.`   SX2XV * * * * * * * * * p g 4 UXUXUXUXUXUXUXUXUX",
"UXUXUX*.).{.}.}.}.}.}.}.}.}.}.}.}.}.}.}.J.L.L.J.L.{.[.7.4.lXBXNXmXxXzXkXjXU ,   SX1XY * * = * * = * = * b g 4 UXUXUXUXUXUXUXUXUX",
"UXUXUX*.).).(.(.(.(.(.(.(.(.(.(.(.(.(.).L.L.L.L.L.L.{.}.9.,.gXNXmXxXzXkXc [ } +.SX1XV = = = = = = = = = b g 4 UXUXUXUXUXUXUXUXUX",
"UXUXUX*.).^.L.L.L.L.L.^.L.L.L.^.L.L.L.L.L.L.L.L.L.L.^.{.}.m.:.aXmXxXzXkXc o.-XwXSX1XY = - - = - - = - - m g 4 UXUXUXUXUXUXUXUXUX",
"UXUXUX*.).J.L.^.^.^.^.^.^.^.^.^.^.^.^.^.L.^.^.^.^.^.^.^.{.}.m.:.uXxXzXkXjXeXwXwXSX1XE - r - r - - r - - m g 4 UXUXUXUXUXUXUXUXUX",
"UXUXUX*.(.D.g.D.L.^.^.~.^.^.~.^.~.^.^.^.~.^.^.~.^.~.^.^.~._.{.x.;.E.zXvXjXeXwXwXSX1XV r r r r r r r r r M h 4 UXUXUXUXUXUXUXUXUX",
"UXUXUX*./.A.f.f.p.d.A.H.K.~.~.~.~.~.~.~.~.~.~.K.~.~.K.H.A.a.H./.x.-.R.jXjXeXwXwXSX1XW r r r t r r r r r M g 4 UXUXUXUXUXUXUXUXUX",
"UXUXUX*./.s.p.p.p.p.p.p.p.a.d.A.A.C.C.C.C.C.C.V.d.a.p.p.p.p.p.C./.c.*.Y.jXeXwXwXSX1XV a t t t t t t r t M h 4 UXUXUXUXUXUXUXUXUX",
"UXUXUX;.Q.s.i.i.i.i.i.i.i.i.i.i.i.i.i.i.i.i.i.i.i.i.i.i.i.i.i.s.Q.N.*.:.qXeXwXwXSX2XW d d d d t d d d d N h 4 UXUXUXUXUXUXUXUXUX",
"UXUXUX*.W.u.w.w.w.i.w.w.w.e.w.w.w.w.i.w.w.w.e.w.w.w.i.w.w.w.Z.Q.c.;.0.hXrXeXwXwXVX1XW d d d d d d d d d N h 4 UXUXUXUXUXUXUXUXUX",
"UXUXUX*.B.u.w.w.w.w.w.w.w.w.w.w.w.w.w.w.w.w.w.w.w.w.w.w.w.z.G.j.*.Y.kXkXrXeXwXwXDX1XW j j j j j j j j j |.h 4 UXUXUXUXUXUXUXUXUX",
"UXUXUX*.B.y.w.w.w.w.w.w.w.w.w.w.w.w.w.w.w.w.w.w.w.w.w.w.v.B.t.*.E.xXzXkXjXeXwXwXVX1XW k j j k j j j k j |.z 4 UXUXUXUXUXUXUXUXUX",
"UXUXUX*.B.y.w.w.w.w.w.w.w.w.w.w.w.w.w.w.w.w.w.w.w.w.e.F.B.1.;.iXcXxXzXkXjXeXwXwXDX2XW k k k k k k k k k |.z 4 UXUXUXUXUXUXUXUXUX",
"UXUXUX*.G.W.B.B.G.G.F.G.G.G.G.G.B.N.G.G.w.w.w.w.w.e.G.N.<.,.sXNXcXxXzXkXjXeXwXwXSX1XW l l l l l l l l l  Xz 4 UXUXUXUXUXUXUXUXUX",
"UXUXUX*.h.h.h.h.h.h.h.h.h.h.h.h.h.7.M.G.w.w.w.w.y.B.c.;.8.nXBXNXmXxXzXkXjXeXwXwXSX1XQ l l l l l l l l l .Xz 4 UXUXUXUXUXUXUXUXUX",
"UXUXUX*.*.=.*.*.=.*.*.=.*.*.*.=.*.*.2.G.w.w.w.u.W.l.;.I.CXVXBXNXmXxXzXkXjXeXwXwXDX1XQ l l l l l x x x x .Xz 4 UXUXUXUXUXUXUXUXUX",
"UXUXUXUXUXUXUXUXUXUXUXUXUXUXUXUXUX#.7.G.w.w.z.B.j.-.'.DXSXVXBXNXmXxXzXkXjXkXmXDXDX@.Q A A A A A A A x A .XC 4 UXUXUXUXUXUXUXUXUX",
"UXUXUXUXUXUXUXUXUXUXUXUXUXUXUXUXUX#.7.W.w.v.B.2.=.yXJXDXSXVXBXNXmXxXzXxXVXDXBX9X} / Z A A A A A A A A A XXC 4 UXUXUXUXUXUXUXUXUX",
"UXUXUXUXUXUXUXUXUXUXUXUXUXUXUXUXUX#.2.G.N.N.1.>.dXHXJXDXSXVXBXNXMXBXDXDXNX5X .[ ) F S A A A S A A S A A XXz 4 UXUXUXUXUXUXUXUXUX",
"UXUXUXUXUXUXUXUXUXUXUXUXUXUXUXUXUX#.2.G.N.<.5.bXHXKXJXDXSXVXVXSXHXHXxX2X+. ._ G S S S S D S S S S S D D XXC 4 UXUXUXUXUXUXUXUXUX",
"UXUXUXUXUXUXUXUXUXUXUXUXUXUXUXUXUX#.7.n.>.q.ZXHXHXKXJXDXDXHXKXJXzX<X*X| _ D D D S D D D D D D D D D D D oXC 4 UXUXUXUXUXUXUXUXUX",
"UXUXUXUXUXUXUXUXUXUXUXUXUXUXUXUXUX#.>.=.U.FXKXHXHXHXHXKXLXJXkX1X-X#XJ H H D H D H D H D D D D D D D H D oXC 4 UXUXUXUXUXUXUXUXUX",
"UXUXUXUXUXUXUXUXUXUXUXUXUXUXUXUXUX&.-.R.HXHXHXKXLXPXPXJXjX4X,X@XJ D H H H D H H D H D H H H H H H D H H oXC 4 UXUXUXUXUXUXUXUXUX",
"UXUXUXUXUXUXUXUXUXUXUXUXUXUXUXUXUX#.P.MXHXKXLXPXPXGXrX8X,X@XJ H J J H H H H H H H H H H H H K H H H H H OXC 4 UXUXUXUXUXUXUXUXUX",
"UXUXUXUXUXUXUXUXUXUXUXUXUXUXUXUXUX9 X.NXKXIXLXSXrXqX&X+XJ J J H H H H H H H H J K H J K H H H J K H H H OXC 4 UXUXUXUXUXUXUXUXUX",
"UXUXUXUXUXUXUXUXUXUXUXUXUXUXUXUXUX4 X.NXJXVXkXjX&XL H J H H H J J H K J H H H J J H H J J H J H H J H J OXC 4 UXUXUXUXUXUXUXUXUX",
"UXUXUXUXUXUXUXUXUXUXUXUXUXUXUXUXUX3 X.NXMXqX$XP H H J H H H J J H H H J J J J J J H K H H H H J H J J J OXC 4 UXUXUXUXUXUXUXUXUX",
"UXUXUXUXUXUXUXUXUXUXUXUXUXUXUXUXUX4 ..6X@XXXK K K K K K XXK K K K K  XK K K K L .XJ K .XK K K K .XK K K OXC 3 UXUXUXUXUXUXUXUXUX",
"UXUXUXUXUXUXUXUXUXUXUXUXUXUXUXUXUX3 v P .XOXOXOXOXOXOXOXOXOXOXOXOXOXOXOXOXOXOXOXOXOXOXOXOXOXOXOXOXOXOXOXOXC 3 UXUXUXUXUXUXUXUXUX",
"UXUXUXUXUXUXUXUXUXUXUXUXUXUXUXUXUX3 4 4 4 6 6 6 6 6 6 6 6 6 6 6 6 6 6 6 6 6 6 6 6 6 6 6 6 6 6 6 6 6 6 6 6 4 3 UXUXUXUXUXUXUXUXUX",
"UXUXUXUXUXUXUXUXUXUXUXUXUXUXUXUXUXUXUX; ; ; ; ; ; ; ; ; ; ; ; ; ; ; ; ; ; ; ; ; ; ; ; ; ; ; ; ; ; ; ; ; ; UXUXUXUXUXUXUXUXUXUXUX",
"UXUXUXUXUXUXUXUXUXUXUXUXUXUXUXUXUXUXUXUXUXUXUXUXUXUXUXUXUXUXUXUXUXUXUXUXUXUXUXUXUXUXUXUXUXUXUXUXUXUXUXUXUXUXUXUXUXUXUXUXUXUXUXUX",
"UXUXUXUXUXUXUXUXUXUXUXUXUXUXUXUXUXUXUXUXUXUXUXUXUXUXUXUXUXUXUXUXUXUXUXUXUXUXUXUXUXUXUXUXUXUXUXUXUXUXUXUXUXUXUXUXUXUXUXUXUXUXUXUX",
"UXUXUXUXUXUXUXUXUXUXUXUXUXUXUXUXUXUXUXUXUXUXUXUXUXUXUXUXUXUXUXUXUXUXUXUXUXUXUXUXUXUXUXUXUXUXUXUXUXUXUXUXUXUXUXUXUXUXUXUXUXUXUXUX",
"UXUXUXUXUXUXUXUXUXUXUXUXUXUXUXUXUXUXUXUXUXUXUXUXUXUXUXUXUXUXUXUXUXUXUXUXUXUXUXUXUXUXUXUXUXUXUXUXUXUXUXUXUXUXUXUXUXUXUXUXUXUXUXUX",
"UXUXUXUXUXUXUXUXUXUXUXUXUXUXUXUXUXUXUXUXUXUXUXUXUXUXUXUXUXUXUXUXUXUXUXUXUXUXUXUXUXUXUXUXUXUXUXUXUXUXUXUXUXUXUXUXUXUXUXUXUXUXUXUX",
"UXUXUXUXUXUXUXUXUXUXUXUXUXUXUXUXUXUXUXUXUXUXUXUXUXUXUXUXUXUXUXUXUXUXUXUXUXUXUXUXUXUXUXUXUXUXUXUXUXUXUXUXUXUXUXUXUXUXUXUXUXUXUXUX"
};
