/* XPM */
static char *_j0q9_tm89r[] = {
/* columns rows colors chars-per-pixel */
"64 64 61 1 ",
"  c #4E4F4C",
". c #4E504C",
"X c #51534F",
"o c #555753",
"O c #575955",
"+ c #585A55",
"@ c #5C5E59",
"# c #5F615D",
"$ c #61635F",
"% c #656663",
"& c #6C6F6A",
"* c #6E716C",
"= c #71746F",
"- c #737571",
"; c #777974",
": c #797B76",
"> c #7B7D79",
", c #7E817C",
"< c #80837E",
"1 c #838581",
"2 c #868984",
"3 c #898C87",
"4 c #8B8E89",
"5 c #8F918C",
"6 c #91938E",
"7 c #949592",
"8 c #979993",
"9 c #999B96",
"0 c #9C9E99",
"q c #9EA19B",
"w c #A1A39E",
"e c #A4A6A1",
"r c #A6A8A3",
"t c #A9ABA6",
"y c #ACAEA9",
"u c #AEB0AB",
"i c #B1B3AE",
"p c #B4B6B1",
"a c #B7B9B3",
"s c #B9BBB6",
"d c #BCBEB9",
"f c #BFC0BB",
"g c #C1C3BD",
"h c #C4C6C0",
"j c #C6C8C3",
"k c #CACCC6",
"l c #CCCDCA",
"z c #CFD0CD",
"x c #D1D2CE",
"c c #D5D5D1",
"v c #D7D8D5",
"b c #D9DAD7",
"n c #DCDDDA",
"m c #DFE0DD",
"M c #E1E2DE",
"N c #E5E6E3",
"B c #E7E8E6",
"V c #E9E9E7",
"C c #EBECEA",
"Z c #F2F2F0",
"A c None",
/* pixels */
"AAAAAAAAAAAAAAAAAAAAAAAAAAAAAAAAAAAAAAAAAAAAAAAAAAAAAAAAAAAAAAAA",
"AAAAAAAAAAAAAAAAAAAAAAAAAAAAAAAAAAAAAAAAAAAAAAAAAAAAAAAAAAAAAAAA",
"AAAAAAAAAAAAAAAAAAAAAAAAAAAAAAAAAAAAAAAAAAAAAAAAAAAAAAAAAAAAAAAA",
"AAAAAAAAAAAAAAAAAAAAAAAAAAAAAAAAAAAAAAAAAAAAAAAAAAAAAAAAAAAAAAAA",
"AAAAAAAAAAAAAAAAAAAAAAAAAAAAAAAAAAAAAAAAAAAAAAAAAAAAAAAAAAAAAAAA",
"AAAAAAAAAAAAAAAAAAAAAAAAAAAAAAAAAAAAAAAAAAAAAAAAAAAAAAAAAAAAAAAA",
"AAAAAAAAAAAAAAAAAAAAAAAAAAAAAAAAAAAAAAAAAAAAAAAAAAAAAAAAAAAAAAAA",
"AAAAAAAAAAAAAAAAAAAAAAAAAAAAAAAAAAAAAAAAAAAAAAAAAAAAAAAAAAAAAAAA",
"AAAAAAAAAAAAAAAAAAAoooooooo++++@OOOoooooooooooOAAAAAAAAAAAAAAAAA",
"AAAAAAAAAAAAAAAAAA+5zzkzkzkkkkkgkllklllllllllh*OAAAAAAAAAAAAAAAA",
"AAAAAAAAAAAAAAAAAoqVVVVVCVCVCCCVCVCCVCCVCBCBBVn%OAAAAAAAAAAAAAAA",
"AAAAAAAAAAAAAAAA#4BVNNNNVMNNNNNNNNNNNNNNNNNNNNBv@AAAAAAAAAAAAAAA",
"AAAAAAAAAAAAAAA+,CVNNNNVNNNNNNNNNNNNNNNNNNNNNmNVjOAAAAAAAAAAAAAA",
"AAAAAAAAAAAAAA+:CZCZCZCCZCCZCZZCZCCZCZZCZCCCCCCCZdOAAAAAAAAAAAAA",
"AAAAAAAAAAAAAo#nZCCCCCCCCCCCZCZZCVCVCCVVBCBBBBBVBN3oAAAAAAAAAAAA",
"AAAAAAAAAAAAAo4nkkkkkkkkkkkkcgggkkkkkkkjhhhhhffddzyoAAAAAAAAAAAA",
"AAAAAAAAAAAAAo5nkkkkkkkkxgxxgxgxkkkkkkjjhhhhfhdddluoAAAAAAAAAAAA",
"AAAAAAAAAAAAAo5mkkka5544<55<<58<444534333322337adlioAAAAAAAAAAAA",
"AAAAAAAAAAAAAo6nkkh-,33385<56<5<221111111111<<-2skioAAAAAAAAAAAA",
"AAAAAAAAAAAAAo6Mkky*hhhhgggxggggfssapaiiuyyytr7&slioAAAAAAAAAAAA",
"AAAAAAAAAAAAAo6Mkkt&hhhhggggffffsspppiiiyyyytr7&slioAAAAAAAAAAAA",
"AAAAAAAAAAAAAo7Mkjt&hhhhggggffffsssppiiuyyytrr5&akioAAAAAAAAAAAA",
"AAAAAAAAAAAAAo7Nkkt*ghhhggggfw8888887tuyyyttrr5&plioAAAAAAAAAAAA",
"AAAAAAAAAAAAAo7Nkkt*jhhhgggg<oooXoooo+eyyttrre5&plpoAAAAAAAAAAAA",
"AAAAAAAAAAAAAo7Nkkt*ggkggggf+<gaappii8wwytrree5&plpoAAAAAAAAAAAA",
"AAAAAAAAAAAAAo7Bkkt&kgggggff,wfappiuugguttreee5&ilpoAAAAAAAAAAAA",
"AAAAAAAAAAAAAo7Nkkt&kgggffffaffgggsfgcgutreeww5&ikpoAAAAAAAAAAAA",
"AAAAAAAAAAAAAo7Nkkt&ggggffffgxcccccccgiwtreewq4*ijpOAAAAAAAAAAAA",
"AAAAAAAAAAAAAo7Bkkt&gggffffppappiiiuyyttreewwq4&ulioAAAAAAAAAAAA",
"AAAAAAAAAAAAAo7Nkkt&ggffaffpfpppiiyyytyweeewwq4&yjioAAAAAAAAAAAA",
"AAAAAAAAAAAAAo7Bkkt&ggfffaffpppiiuuytttweewwq04&yjioAAAAAAAAAAAA",
"AAAAAAAAAAAAAo7Bkku&ffffafpppiiiiuyyttttewww002*yjioAAAAAAAAAAAA",
"AAAAAAAAAAAAAo7Nkkk<&&&*&&&&&&&&&&*&&&&&&&&&&&&<iga+AAAAAAAAAAAA",
"AAAAAAAAAAAAAo7Nkkggytwteewwwwww00000000808888wyygi+AAAAAAAAAAAA",
"AAAAAAAAAAAAAo7Ngkggywwwwwwwwww0000080800888880itgiXAAAAAAAAAAAA",
"AAAAAAAAAAAAAo7Nkgg<&*****&&&&&&****&&&&&&&&&&&<tgiXAAAAAAAAAAAA",
"AAAAAAAAAAAAAo7Ngku&sggggjgjhhhhggggggaagiiiii<=wguoAAAAAAAAAAAA",
"AAAAAAAAAAAAAo7Nggw&kggkjgjghhhhggggggafaaaiii0&wguoAAAAAAAAAAAA",
"AAAAAAAAAAAAAo7Mggw&gjgggjgjhhhhgggggafpaiiiyy8&rgyoAAAAAAAAAAAA",
"AAAAAAAAAAAAAo7Mggw&jgjkggjghhhhgggffgaaiiiiit8&wguoAAAAAAAAAAAA",
"AAAAAAAAAAAAAO7mggq&gggghhghhhhhgggggaaaaiiyyt<&wfyoAAAAAAAAAAAA",
"AAAAAAAAAAAAAO7Mgfq&gggkhhhhd3::<<;=:6iiiiiytt0=wfyoAAAAAAAAAAAA",
"AAAAAAAAAAAAAO6mffq&gggkhhhh:%::;=;;;%qiiiytyt<&0dyoAAAAAAAAAAAA",
"AAAAAAAAAAAAAO6nffq&gkgghhhhO0gggggaa0wiiyyttt8*qdy+AAAAAAAAAAAA",
"AAAAAAAAAAAAAo5mpfq&kkgghhhh&rgdgaggasgyyyytwt8=0dyoAAAAAAAAAAAA",
"AAAAAAAAAAAAAo5mffq&gggkhhhhrrpagggcgngiytttww<*9syoAAAAAAAAAAAA",
"AAAAAAAAAAAAAX5mpfq&gkgghhhhhjxcggcgcgiyytttww6=9sroAAAAAAAAAAAA",
"AAAAAAAAAAAAA.5cfiq;gggkhhhhhfddgagiaiyyttwwww<;9stoAAAAAAAAAAAA",
"AAAAAAAAAAAAA 5naa0&hhhhhhgggddsaappiyyytteeeq4&7stoAAAAAAAAAAAA",
"AAAAAAAAAAAAA 4nppu-,332433322222111111<,,<,>>->7stoAAAAAAAAAAAA",
"AAAAAAAAAAAAA 7npipe2111<1<,,<,,<,>>>>>>>>>>>><77aroAAAAAAAAAAAA",
"AAAAAAAAAAAAA 4bppuuuuyyyttttrttteeeeeeqqq0009889sroAAAAAAAAAAAA",
"AAAAAAAAAAAAA 3nbbvbvvvvccvcczclzzzxzzlzlllllllkljeoAAAAAAAAAAAA",
"AAAAAAAAAAAAAA#12211111111111111>>>>>>>>>:>>::::::%oAAAAAAAAAAAA",
"AAAAAAAAAAAAAAA X       .       XXX      X    XX X AAAAAAAAAAAAA",
"AAAAAAAAAAAAAAAAAAAAAAAAAAAAAAAAAAAAAAAAAAAAAAAAAAAAAAAAAAAAAAAA",
"AAAAAAAAAAAAAAAAAAAAAAAAAAAAAAAAAAAAAAAAAAAAAAAAAAAAAAAAAAAAAAAA",
"AAAAAAAAAAAAAAAAAAAAAAAAAAAAAAAAAAAAAAAAAAAAAAAAAAAAAAAAAAAAAAAA",
"AAAAAAAAAAAAAAAAAAAAAAAAAAAAAAAAAAAAAAAAAAAAAAAAAAAAAAAAAAAAAAAA",
"AAAAAAAAAAAAAAAAAAAAAAAAAAAAAAAAAAAAAAAAAAAAAAAAAAAAAAAAAAAAAAAA",
"AAAAAAAAAAAAAAAAAAAAAAAAAAAAAAAAAAAAAAAAAAAAAAAAAAAAAAAAAAAAAAAA",
"AAAAAAAAAAAAAAAAAAAAAAAAAAAAAAAAAAAAAAAAAAAAAAAAAAAAAAAAAAAAAAAA",
"AAAAAAAAAAAAAAAAAAAAAAAAAAAAAAAAAAAAAAAAAAAAAAAAAAAAAAAAAAAAAAAA",
"AAAAAAAAAAAAAAAAAAAAAAAAAAAAAAAAAAAAAAAAAAAAAAAAAAAAAAAAAAAAAAAA"
};
