/* XPM */
static char *Free_Converter_com_1466287315_gnome_view_refresh_64_4490312[] = {
/* columns rows colors chars-per-pixel */
"64 64 102 2 ",
"   c #132E53",
".  c #16325A",
"X  c #173663",
"o  c #1A3C6C",
"O  c #1B3E72",
"+  c #1C4076",
"@  c #1D437A",
"#  c #1F4780",
"$  c #1F4A86",
"%  c #1F4B88",
"&  c #204A87",
"*  c #224C89",
"=  c #26518D",
"-  c #2A538E",
";  c #275492",
":  c #2B5592",
">  c #2D5995",
",  c #2F5C9A",
"<  c #325B95",
"1  c #325E99",
"2  c #36619D",
"3  c #3B649C",
"4  c #3665A3",
"5  c #3966A2",
"6  c #3C69A5",
"7  c #3C6CAA",
"8  c #40679E",
"9  c #41689D",
"0  c #436CA3",
"q  c #496EA0",
"w  c #416EAB",
"e  c #4C71A4",
"r  c #4371AE",
"t  c #4A74AD",
"y  c #5276A6",
"u  c #557AAA",
"i  c #5A7BA9",
"p  c #4574B1",
"a  c #4976B2",
"s  c #4C7AB5",
"d  c #4D7DB9",
"f  c #527DB5",
"g  c #517FB9",
"h  c #5F80AD",
"j  c #5580B7",
"k  c #5D82B2",
"l  c #5581BA",
"z  c #5A85BD",
"x  c #5D88BF",
"c  c #6282AE",
"v  c #6384B1",
"b  c #6689B6",
"n  c #6A8AB5",
"m  c #6087BB",
"M  c #628BBF",
"N  c #7293BB",
"B  c #7B9ABE",
"V  c #5E8AC0",
"C  c #638DC1",
"Z  c #688FC1",
"A  c #6791C3",
"S  c #6C94C5",
"D  c #7296C6",
"F  c #7298C6",
"G  c #7B9BC3",
"H  c #749BC9",
"J  c #799ECA",
"K  c #7DA2CC",
"L  c #76A2D0",
"P  c #7BA5D1",
"I  c #7FA8D2",
"U  c #85A2C5",
"Y  c #8BA6C7",
"T  c #83A6CE",
"R  c #8AA6C9",
"E  c #85A8CE",
"W  c #8EAACC",
"Q  c #91ADCD",
"!  c #84AAD3",
"~  c #8AADD3",
"^  c #90AFD4",
"/  c #8EB1D6",
"(  c #94B4D6",
")  c #9BB7D5",
"_  c #94B5D8",
"`  c #98B7D8",
"'  c #9CBADA",
"]  c #A2BEDB",
"[  c #A6C1DB",
"{  c #ABC4DD",
"}  c #B0C7DF",
"|  c #B1C8DF",
" . c #AFC7E0",
".. c #B4CAE2",
"X. c #B9CDE3",
"o. c #BFD2E7",
"O. c #BDD2E8",
"+. c #C0D3E7",
"@. c #C3D5E9",
"#. c #C7D8EA",
"$. c #C9DAEB",
"%. c None",
/* pixels */
"%.%.%.%.%.%.%.%.%.%.%.%.%.%.%.%.%.%.%.%.%.%.%.%.%.%.%.%.%.%.%.%.%.%.%.%.%.%.%.%.%.%.%.%.%.%.%.%.%.%.%.%.%.%.%.%.%.%.%.%.%.%.%.%.",
"%.%.%.%.%.%.%.%.%.%.%.%.%.%.%.%.%.%.%.%.%.%.%.%.%.%.%.%.%.%.%.%.%.%.%.%.%.%.%.%.%.%.%.%.%.%.%.%.%.%.%.%.%.%.%.%.%.%.%.%.%.%.%.%.",
"%.%.%.%.%.%.%.%.%.%.%.%.%.%.%.%.%.%.%.%.%.%.%.%.%.%.%.%.%.%.%.%.%.%.%.%.%.%.%.%.%.%.%.%.%.%.%.%.%.%.%.%.%.%.%.%.%.%.%.%.%.%.%.%.",
"%.%.%.%.%.%.%.%.%.%.%.%.%.%.%.%.%.%.%.%.%.%.%.%.%.%.%.%.%.%.%.%.%.%.%.%.%.%.%.%.%.%.%.%.%.%.%.%.%.%.%.%.%.%.%.%.%.%.%.%.%.%.%.%.",
"%.%.%.%.%.%.%.%.%.%.%.%.%.%.%.%.%.%.%.%.%.%.%.%.%.%.%.%.%.%.%.%.%.%.%.%.%.%.%.%.%.%.%.%.%.%.%.%.%.%.%.%.%.%.%.%.%.%.%.%.%.%.%.%.",
"%.%.%.%.%.%.%.%.%.%.%.%.%.%.%.%.%.%.%.& & & & % & = & & & & & & & & %.%.%.%.%.%.%.%.%.%.%.%.%.%.%.%.%.%.%.%.%.%.%.& & %.%.%.%.%.",
"%.%.%.%.%.%.%.%.%.%.%.%.%.%.%.%.& * & : , 5 7 p a s f f g f f t 0 1 = & & * %.%.%.%.%.%.%.%.%.%.%.%.%.%.%.%.%.%.& & & %.%.%.%.%.",
"%.%.%.%.%.%.%.%.%.%.%.%.%.%.& & : 4 w w r p p p a t a s f g f m C Z S m t 2 = & & %.%.%.%.%.%.%.%.%.%.%.%.%.%.%.& - & %.%.%.%.%.",
"%.%.%.%.%.%.%.%.%.%.%.%.% % : w w w 7 7 7 7 7 w 7 p r r p p p a s s l C A H H z 8 * * & %.%.%.%.%.%.%.%.%.%.%.$ Y c & %.%.%.%.%.",
"%.%.%.%.%.%.%.%.%.%.%.* = 0 s a 7 7 7 7 7 7 w w r 7 r p p p a a s s s s d V C L ! T b < & & %.%.%.%.%.%.%.%.$ U @.c & %.%.%.%.%.",
"%.%.%.%.%.%.%.%.%.%.& - s f a w 7 7 7 7 7 7 w w p 7 p p p p p s a d d d d g V V Z K ^ ) G 3 & * %.%.%.%.%.& G @.@.h & %.%.%.%.%.",
"%.%.%.%.%.%.%.%.%.* : f f a r 7 6 6 7 7 7 p p p p p p p p d p s d s d d d g V C Z D H T ' { Y 3 & & %.%.& N @...#.h & %.%.%.%.%.",
"%.%.%.%.%.%.%.%.& = f f a t 7 7 7 0 a s s s g z V V g z l g s s s d d d l V V A S D J K T ^ { ..U : & & n @.X.' #.i & %.%.%.%.%.",
"%.%.%.%.%.%.%.%.$ t j f t r w w w 2 < : = = * * ; > 5 t k Z A C V d s d V V C A D H J K T ~ ^ ] X...N n O.X.' ' @.i & %.%.%.%.%.",
"%.%.%.%.%.%.%.& 1 l j a t r 2 - & = ; > 1 > > %.%.& & & & - 0 l S D C V l V A S H H K T ~ ~ ( ( `  .o.+.X.' ' ] @.i & %.%.%.%.%.",
"%.%.%.%.%.%.%.& f j s a 5 = * > w p p a 5 %.%.%.%.%.%.%.%.%.& & = r D T H S S D H L T ! ~ ^ _ ` ` ` ' ] ' ' ] ' @.i & %.%.%.%.%.",
"%.%.%.%.%.%.= < k f s 1 * : p a s d d r %.%.%.%.%.%.%.%.%.%.%.%.%.* & 0 J ^ E J K K T ~ ~ ( ` ` ` ` ' ' ' ' ] ' @.f & %.%.%.%.%.",
"%.%.%.%.%.%.* 0 f s > * 4 f f g j j z 4 %.%.%.%.%.%.%.%.%.%.%.%.%.%.%.= * e W ) ~ T E ~ ( ` ` ` ` ' ' ' ' ' ' _ @.u & %.%.%.%.%.",
"%.%.%.%.%.%.& j f 1 * 7 f l z x x %.%.4 %.%.%.%.%.%.%.%.%.%.%.%.%.%.%.%.%.* = b ] [ ( ^ ` ` ` ' ' ' ' ] ' ' _ _ O.u & %.%.%.%.%.",
"%.%.%.%.%.%.: j 5 & 5 V %.%.%.%.%.%.%.%.%.%.%.%.%.%.%.%.%.%.%.%.%.%.%.%.%.%.%.= < W  .] ( ` ` ` ' ' ' ' ' _ _ / @.t & %.%.%.%.%.",
"%.%.%.%.%.& , s : ; %.%.%.%.%.%.%.%.%.%.%.%.%.%.%.%.%.%.%.%.%.%.%.%.%.%.%.%.%.%.& & n X...) ` ) ' ' ' ] ' _ / / O.y * %.%.%.%.%.",
"%.%.%.%.%.* 2 > * %.%.%.%.%.%.%.%.%.%.%.%.%.%.%.%.%.%.%.%.%.%.%.%.%.%.%.%.%.%.%.%.%.* < {  .' ' ' ' ' ' ` / / / O.y $ %.%.%.%.%.",
"%.%.%.%.%.& 1 & , %.%.%.%.%.%.%.%.%.%.%.%.%.%.%.%.%.%.%.%.%.%.%.%.%.%.%.%.%.%.%.%.%.* * )  .' ' ' ] ' ' _ / ~ ! O.y & %.%.%.%.%.",
"%.%.%.%.%.& = * %.%.%.%.%.%.%.%.%.%.%.%.%.%.%.%.%.%.%.%.%.%.%.%.%.%.%.%.%.%.%.%.%.%.* W o.] ' ' ] ' ` ` / / ! I O.y * %.%.%.%.%.",
"%.%.%.%.%.& & : %.%.%.%.%.%.%.%.%.%.%.%.%.%.%.%.%.%.%.%.%.%.%.%.%.%.%.%.%.%.%.%.%.& G +.[ ' ' ' ' ' ` / / ! ! ! O.y $ %.%.%.%.%.",
"%.%.%.%.%.& & %.%.%.%.%.%.%.%.%.%.%.%.%.%.%.%.%.%.%.%.%.%.%.%.%.%.%.%.%.%.%.%.%.& n +.[ ' ' ' ' ] ' _ / ~ ! P P O.e * %.%.%.%.%.",
"%.%.%.%.%.& & %.%.%.%.%.%.%.%.%.%.%.%.%.%.%.%.%.%.%.%.%.%.%.%.%.%.%.%.%.%.%.%.* i +.{ ` ' ' ' ] ' _ / / ! I P L O.e $ %.%.%.%.%.",
"%.%.%.%.%.& & %.%.%.%.%.%.%.%.%.%.%.%.%.%.%.%.%.%.%.%.%.%.%.%.%.%.%.%.%.%.%.* e X. .` ' ' ' ] ' ` _ / ~ I P L L O.e $ %.%.%.%.%.",
"%.%.%.%.%.%.%.%.%.%.%.%.%.%.%.%.%.%.%.%.%.%.%.%.%.%.%.%.%.%.%.%.%.%.%.%.%.= 3 X.+.+.@.#.$.$.$.$.#.@.@.O.+.O.O.O.@.q * %.%.%.%.%.",
"%.%.%.%.%.%.%.%.%.%.%.%.%.%.%.%.%.%.%.%.%.%.%.%.%.%.%.%.%.%.%.%.%.%.%.%.& & q c v v v v v v v v x v v v k k k h k = $ %.%.%.%.%.",
"%.%.%.%.%.%.%.%.%.%.%.%.%.%.%.%.%.%.%.%.%.%.%.%.%.%.%.%.%.%.%.%.%.%.%.%.& & & & & & & & & & & & & & % % & & & & & & %.%.%.%.%.%.",
"%.%.%.%.%.& & & & & & & & & & & & & & & & & & & & & & % %.%.%.%.%.%.%.%.%.%.%.%.%.%.%.%.%.%.%.%.%.%.%.%.%.%.%.%.%.%.%.%.%.%.%.%.",
"%.%.%.%.%.& 3 ' _ ' _ ' ] [ [  .} } } } } { { [ [ q = %.%.%.%.%.%.%.%.%.%.%.%.%.%.%.%.%.%.%.%.%.%.%.%.%.%.%.%.%.%.%.%.%.%.%.%.%.",
"%.%.%.%.%.& 3 ( I I I / / _ _ ] ] [ [ ] ] ] ] [ i & %.%.%.%.%.%.%.%.%.%.%.%.%.%.%.%.%.%.%.%.%.%.%.%.%.%.%.%.%.%.%.& %.%.%.%.%.%.",
"%.%.%.%.%.* 9 ' L P I ~ ~ / _ ' ' ' ' ' ) ) [ n * %.%.%.%.%.%.%.%.%.%.%.%.%.%.%.%.%.%.%.%.%.%.%.%.%.%.%.%.%.%.%.%.& & %.%.%.%.%.",
"%.%.%.%.%.* 3 ( L I I I / _ _ ' ] ' ) ' ' { B * %.%.%.%.%.%.%.%.%.%.%.%.%.%.%.%.%.%.%.%.%.%.%.%.%.%.%.%.%.%.%.%.: $ % %.%.%.%.%.",
"%.%.%.%.%.* 3 ' I I ! / / _ ' ] ' ' ' ' [ U * %.%.%.%.%.%.%.%.%.%.%.%.%.%.%.%.%.%.%.%.%.%.%.%.%.%.%.%.%.%.%.%.%.= & & %.%.%.%.%.",
"%.%.%.%.%.$ 9 ' I I / / _ ' ] ' ' ' ' [ Q = * %.%.%.%.%.%.%.%.%.%.%.%.%.%.%.%.%.%.%.%.%.%.%.%.%.%.%.%.%.%.%.%.%.% & & %.%.%.%.%.",
"%.%.%.%.%.* 7 ' I ! / / ' ' ' ' ' ` [ Q = & %.%.%.%.%.%.%.%.%.%.%.%.%.%.%.%.%.%.%.%.%.%.%.%.%.%.%.%.%.%.%.%.%.: & : & %.%.%.%.%.",
"%.%.%.%.%.* 7 ' / / / _ _ ] ] ' ' ` [ B * * %.%.%.%.%.%.%.%.%.%.%.%.%.%.%.%.%.%.%.%.%.%.%.%.%.%.%.%.%.%.%.%.%.* 1 : & %.%.%.%.%.",
"%.%.%.%.%.* 9 ' ~ / _ _ ' ] ' ' ' ` ' [ U - * %.%.%.%.%.%.%.%.%.%.%.%.%.%.%.%.%.%.%.%.%.%.%.%.%.%.%.%.%.%.%.: & a = %.%.%.%.%.%.",
"%.%.%.%.%.* 9 [ / _ _ ' ] ' ' ' ' ` ` ` [ ( e * & %.%.%.%.%.%.%.%.%.%.%.%.%.%.%.%.%.%.%.4 %.%.%.%.%.%.%.%.4 % 2 f & %.%.%.%.%.%.",
"%.%.%.%.%.$ q [ / _ ' ' ] ' ' ' ` ` ` ` ( ^ ( N : & %.%.%.%.%.%.%.%.%.%.%.%.%.%.%.%.%.%.4 %.%.%.%.x z l w * : f t & %.%.%.%.%.%.",
"%.%.%.%.%.$ q [ _ ' ] ] ' ' _ ' ` ' ` ^ Q ~ E ~ E u = * %.%.%.%.%.%.%.%.%.%.%.%.%.%.%.%.7 z z j j g g 7 * = s f 6 & %.%.%.%.%.%.",
"%.%.%.%.%.$ e { ' ' ' ' ' ` ' ` ' ( ( / ~ T K K K K D e * & %.%.%.%.%.%.%.%.%.%.%.%.%.%.p g d d s a , * : w f l : & %.%.%.%.%.%.",
"%.%.%.%.%.* e { ' ' ' ' ' ' ' ` ( ( ( ^ E T K H H S S S C 0 = % * %.%.%.%.%.%.%.%.%.%.5 s s a r 5 = & < r s f t & %.%.%.%.%.%.%.",
"%.%.%.%.%.* e { ' ' ' [ [ [ ) ` ( ( / E ! K J F S A V V C x V p 1 = & * & %.%.%.%.%.4 w 5 , > = & : 5 p s f j < * %.%.%.%.%.%.%.",
"%.%.%.%.%.$ e } ' ' [ { Y Q [ [ ( ( ~ ! K K H S A C V z l s g g l j r 2 : * & & & & & & & * ; , 4 7 w p s j t & %.%.%.%.%.%.%.%.",
"%.%.%.%.%.* e | ] ] } Y & & i ) ] Q ~ T K H H S A V z l d d d d d d d d d p r 7 5 4 4 4 4 7 7 4 7 7 p s f f = & %.%.%.%.%.%.%.%.",
"%.%.%.%.%.* e | ] | W = & %.& = b ` Q ~ K H S Z C V V l d d d s p d p p p p r p p 7 7 7 7 7 7 7 7 w a f f : & %.%.%.%.%.%.%.%.%.",
"%.%.%.%.%.& y | | Q - # %.%.%.O * : v E E K S A V l l d d d s s s p p p p r p p w w 7 7 7 7 7 7 w p s f : = %.%.%.%.%.%.%.%.%.%.",
"%.%.%.%.%.# y | Q - # %.%.%.%.%.%.+ & = y F J S V V d d d s d p d p p p p r 7 p r 7 7 7 7 7 7 7 r a t - & %.%.%.%.%.%.%.%.%.%.%.",
"%.%.%.%.%.& y ) - & %.%.%.%.%.%.%.%.%.o * * 3 f C V z l d d s s p p p p r r r r 7 7 7 7 7 4 7 w r 2 & & %.%.%.%.%.%.%.%.%.%.%.%.",
"%.%.%.%.%.# 3 : & %.%.%.%.%.%.%.%.%.%.%.%.. @ & * 4 t j z j g s d p p p r w 7 7 7 7 7 7 7 6 7 2 = & %.%.%.%.%.%.%.%.%.%.%.%.%.%.",
"%.%.%.%.%.# $ & %.%.%.%.%.%.%.%.%.%.%.%.%.%.%.%.X # * * - 2 w t a s a p p p r 7 7 7 7 4 , : & & o %.%.%.%.%.%.%.%.%.%.%.%.%.%.%.",
"%.%.%.%.%.* * %.%.%.%.%.%.%.%.%.%.%.%.%.%.%.%.%.%.%.%.  O # & & % = ; > > , > ; ; * % % & O %.%.%.%.%.%.%.%.%.%.%.%.%.%.%.%.%.%.",
"%.%.%.%.%.%.%.%.%.%.%.%.%.%.%.%.%.%.%.%.%.%.%.%.%.%.%.%.%.%.%.%.. o O + + @ @ + O o %.%.%.%.%.%.%.%.%.%.%.%.%.%.%.%.%.%.%.%.%.%.",
"%.%.%.%.%.%.%.%.%.%.%.%.%.%.%.%.%.%.%.%.%.%.%.%.%.%.%.%.%.%.%.%.%.%.%.%.%.%.%.%.%.%.%.%.%.%.%.%.%.%.%.%.%.%.%.%.%.%.%.%.%.%.%.%.",
"%.%.%.%.%.%.%.%.%.%.%.%.%.%.%.%.%.%.%.%.%.%.%.%.%.%.%.%.%.%.%.%.%.%.%.%.%.%.%.%.%.%.%.%.%.%.%.%.%.%.%.%.%.%.%.%.%.%.%.%.%.%.%.%.",
"%.%.%.%.%.%.%.%.%.%.%.%.%.%.%.%.%.%.%.%.%.%.%.%.%.%.%.%.%.%.%.%.%.%.%.%.%.%.%.%.%.%.%.%.%.%.%.%.%.%.%.%.%.%.%.%.%.%.%.%.%.%.%.%.",
"%.%.%.%.%.%.%.%.%.%.%.%.%.%.%.%.%.%.%.%.%.%.%.%.%.%.%.%.%.%.%.%.%.%.%.%.%.%.%.%.%.%.%.%.%.%.%.%.%.%.%.%.%.%.%.%.%.%.%.%.%.%.%.%.",
"%.%.%.%.%.%.%.%.%.%.%.%.%.%.%.%.%.%.%.%.%.%.%.%.%.%.%.%.%.%.%.%.%.%.%.%.%.%.%.%.%.%.%.%.%.%.%.%.%.%.%.%.%.%.%.%.%.%.%.%.%.%.%.%.",
"%.%.%.%.%.%.%.%.%.%.%.%.%.%.%.%.%.%.%.%.%.%.%.%.%.%.%.%.%.%.%.%.%.%.%.%.%.%.%.%.%.%.%.%.%.%.%.%.%.%.%.%.%.%.%.%.%.%.%.%.%.%.%.%.",
"%.%.%.%.%.%.%.%.%.%.%.%.%.%.%.%.%.%.%.%.%.%.%.%.%.%.%.%.%.%.%.%.%.%.%.%.%.%.%.%.%.%.%.%.%.%.%.%.%.%.%.%.%.%.%.%.%.%.%.%.%.%.%.%."
};
