/* XPM */
static char *Free_Converter_com_1466287356_gnome_system_shutdown_48_44800312[] = {
/* columns rows colors chars-per-pixel */
"48 48 78 1 ",
"  c #444642",
". c #464945",
"X c #4C4E4A",
"o c #4E504C",
"O c #51534F",
"+ c #535551",
"@ c #565953",
"# c #595C56",
"$ c #5B5D59",
"% c #5E6258",
"& c #61635E",
"* c #64685D",
"= c #646662",
"- c #676A64",
"; c #6A6E65",
": c #6C6D6A",
"> c #6D7166",
", c #6F736A",
"< c #71756B",
"1 c #75796F",
"2 c #747672",
"3 c #777A72",
"4 c #797D74",
"5 c #7C7D7A",
"6 c #7C8176",
"7 c #7F837A",
"8 c #81847B",
"9 c #84897E",
"0 c #848682",
"q c #878A80",
"w c #898C84",
"e c #8A8B89",
"r c #8C9086",
"t c #8E928A",
"y c #92958D",
"u c #94988F",
"i c #939492",
"p c #969A91",
"a c #999C94",
"s c #9C9D9A",
"d c #9EA299",
"f c #A1A49D",
"g c #A4A6A1",
"h c #A7A8A2",
"j c #AAADA5",
"k c #ADAEAA",
"l c #AFB1AA",
"z c #B1B3AD",
"x c #B5B6B2",
"c c #B6B8B0",
"v c #BABBB6",
"b c #BEBEBC",
"n c #BFC0BB",
"m c #C1C1BE",
"M c #C4C4C4",
"N c #C8C7C7",
"B c #CACAC5",
"V c #CCCCCC",
"C c #CFD0CB",
"Z c #D1D1CE",
"A c #CFCFD0",
"S c #CFD0D0",
"D c #D3D3D1",
"F c #D8D7D7",
"G c #D9D9D5",
"H c #D7D7D8",
"J c #DCDCDB",
"K c #E1E1DE",
"L c #E4E4E3",
"P c #E8E7E5",
"I c #E9E9E6",
"U c #ECECEC",
"Y c #F0EFED",
"T c #F0F0EF",
"R c #EFEFF0",
"E c #F3F3F3",
"W c #FAFAFA",
"Q c None",
/* pixels */
"QQQQQQQQQQQQQQQQQQQQQQQQQQQQQQQQQQQQQQQQQQQQQQQQ",
"QQQQQQQQQQQQQQQQQQQQQ>>>><QQQQQQQQQQQQQQQQQQQQQQ",
"QQQQQQQQQQQQQQQQ139fvBVZVMla71<QQQQQQQQQQQQQQQQQ",
"QQQQQQQQQQQQQQ<qjKEEEEETEEETIDg9<QQQQQQQQQQQQQQQ",
"QQQQQQQQQQQQ<qxUWULGFVZZZZDJLRELx9<QQQQQQQQQQQQQ",
"QQQQQQQQQQQ3hKWIHCZZSSZDSSSZCCHIELj3QQQQQQQQQQQQ",
"QQQQQQQQQ<wNERHVCSSSSZZSDZSDDSSCHUEVq<QQQQQQQQQQ",
"QQQQQQQQ<uFEKZDDSSDDDZZZZZZDSSSSSAJEJp<QQQQQQQQQ",
"QQQQQQQ<aKRGAZZZZZZZZZZZZZDZZSDDZZVFUKs<QQQQQQQQ",
"QQQQQQ<pJUHCDZZZZZZZZZFJDZZZZZZZDSZVDIKu<QQQQQQQ",
"QQQQQQwDLHASZDZZZZZZZZzimDZZZZZZZDSAVALFrQQQQQQQ",
"QQQQQ3BLHASSZZZZZZZZFm= 5DZDZZZZDSSZAVALB7QQQQQQ",
"QQQQ<lKHVSSDZZZZZFZZGv@o;VHZFZZZSSDZAAVSPj<QQQQQ",
"QQQQwDHSSSZDZZZZGbq7mb#o:Vg5sZFZDSZSAVVNDK9QQQQQ",
"QQQ<zKVVSSDZZZZDz=X.yb#o:M= +5BFSSSAAVVNBKv;QQQQ",
"QQQ8DJVCSDZZZZFx$oo@kb$o:C5X+o5VDSSAAAVVBGG7QQQQ",
"QQQpPFVVDZDZAZN:++=kGv#o:Cm9#+OiDDSDAAVNNDIgQQQQ",
"QQ3vPFAAADAZZFs++&bFGv#o:BGGi@O&MDDAAAVVNDUb;QQQ",
"QQ4FPDVAZDAZZG2o+fGCZv#o:BDDC2+XgDDSAVVBNSUS6QQQ",
"QQ5LIDNAAADDDb=o=mDCGb$X:ZZZDh++8SDSVAVVNAULrQQQ",
"QQyPUAVAZDADFz$X2BDZZZa<kZZZZn#+-ASSAVVMNVRRpQQQ",
"QQhUYAVVAZZAFk$X3BZZZZZCZZZZDN#+&ASSAAVVNNREdQQQ",
"QQlUYABAAADZFv&X:NDZZCZZZZZZDv++:SAAVVVMNNRRgQQQ",
"QQzIYDNVAAADDA:o#vFZZZZZZZZZGs+O0SAAVVVVNNEEgQQQ",
"QQjITSNVAAAADFeoo0DZZZZZZZZFB:OOkHAVVVNMMCEEfQQQ",
"QQfPEGNVVAADZDv#+@gFAZZAZZDDe+o:MSAVVVVNMDEEaQQQ",
"QQyKRJNBVVVAAAD0o+$hDFFFGDZt+oOsHAVVNVMMMJTItQQQ",
"QQ8KUINBNVAAADDN:oO+5hxbxs:O+o0ZSAVVVMNMMIRJ9QQQ",
"QQ-BIRABVVVAZAAFm2o+Oo+$+o+++eNDVVVVBNNMBUEM<QQQ",
"QQ@jUUJMNNVVVAVAFNi$OoOoo++=gDDNVVVNNMMbJRTlQQQQ",
"QQQtJLUNNNVVNAVAVFFbi2:::5sNFAZVVVNNNMMMIYKuQQQQ",
"QQQ<mIUJMNNNNVVAVVVAFFAVDFAAVVVNNVNMMMnGRIV;QQQQ",
"QQQQdKKYVMNNNNVVVVVVAVAAAANAVNNMNVMMMbBULIdQQQQQ",
"QQQQ<mKPIMMNNNNNVVNVVVAANVVNVVNVMMMMMmIIIB<QQQQQ",
"QQQQQuGGULmmMNNNVNNVNVNNVANNNMMMMMMMnLUKJtQQQQQQ",
"QQQQQ#jJGULMMMMMMNNNNNNNMMNMMMMMMMMbKRGKj$QQQQQQ",
"QQQQQQ3cGDUPMMMMMMMMNNNMMMMMMMMMbbMLRHKn<QQQQQQQ",
"QQQQQQQ7nGCIRSbMMMMMMMMMMMMMMMMbbAUIDHn7QQQQQQQQ",
"QQQQQQQQ6cDBHRLMbMbMMbMMMMMbbbbVLRHSHx6QQQQQQQQQ",
"QQQQQQQQQ6jBMSIRKANbbbnnbbbbMALRLVASl6QQQQQQQQQQ",
"QQQQQQQQQQ,pnBCKTEILJGDDDGKKIULCmCma;QQQQQQQQQQQ",
"QQQQQQQQQQQ#8hCKYWWEERUYUUIPJGCCmg8#QQQQQQQQQQQQ",
"QQQQQQQQQQQQQ*9cGEWWEYIILKKKJCmj9;QQQQQQQQQQQQQQ",
"QQQQQQQQQQQQQQQ#8gvVGKKKKCmvjp7+QQQQQQQQQQQQQQQQ",
"QQQQQQQQQQQQQQQQQQ@>69wr996>%QQQQQQQQQQQQQQQQQQQ",
"QQQQQQQQQQQQQQQQQQQQQQQQQQQQQQQQQQQQQQQQQQQQQQQQ",
"QQQQQQQQQQQQQQQQQQQQQQQQQQQQQQQQQQQQQQQQQQQQQQQQ",
"QQQQQQQQQQQQQQQQQQQQQQQQQQQQQQQQQQQQQQQQQQQQQQQQ"
};
