/* XPM */
static char *Free_Converter_com_webstorm_67775338[] = {
/* columns rows colors chars-per-pixel */
"64 64 208 2 ",
"   c #000C000C000C",
".  c #09E809E809E8",
"X  c #136913691369",
"o  c #1B1B1B1B1B1B",
"O  c #22F022F022F0",
"+  c #2B062B062B06",
"@  c #329932993299",
"#  c #3A3A3A3A3A3A",
"$  c gray26",
"%  c #4A2D4A2D4A2D",
"&  c #56BD56BD56BD",
"*  c #5C065C065C06",
"=  c #640E640E640E",
"-  c #6A956A956A95",
";  c #72D272D272D2",
":  c #7C3C7C3C7C3C",
">  c #9CCFE37C7DE4",
",  c #B737E6E66EEF",
"<  c #BC97E7796BD9",
"1  c #AC2CE5657575",
"2  c #A4CFE48E79A4",
"3  c #B2B2E64C71A4",
"4  c #DFDFECEC5757",
"5  c #D4FFEB155DDE",
"6  c #DB92EBEB5A11",
"7  c #EE98EE434EF9",
"8  c #F433EF4E4C2C",
"9  c #F979EFEF4909",
"0  c #FFF0F0F0454F",
"q  c #E504ED2C54B4",
"w  c #EC52EE205151",
"e  c #FFFFF1F15757",
"r  c #C55EE8E86699",
"t  c #CC76E9E962E2",
"y  c #C0C0E7E76969",
"u  c #CFCEEBEB6969",
"i  c #D0D0EA6A6060",
"p  c #DEDEEEEE7D7D",
"a  c #E5E4EEEE6868",
"s  c #FFFFF3F36666",
"d  c #FFFEF4F47676",
"f  c #FFFFF4F47C7C",
"g  c #2CD7D3D3BE13",
"h  c #3B3BD615B635",
"j  c #348AD52AB9B9",
"k  c #7F29DEDE8F39",
"l  c #6666DBDB9D47",
"z  c #6C6CDCDC99EF",
"x  c #72F2DDDD9616",
"c  c #7979DE88923C",
"v  c #45C6D7D7AFAF",
"b  c #4D4DD8D8ABAB",
"n  c #5353D8D8A7A7",
"m  c #5B8EDA40A33C",
"M  c #4197D6D6B25C",
"N  c #6060DADAA0A0",
"B  c #6D6DDEDEB6B5",
"V  c #1F1F8787D7D7",
"C  c #1D998C2FD7D3",
"Z  c #1A049402D7D7",
"A  c #16589C30D7D7",
"S  c #181898F5D7D7",
"D  c #1F1E9695D8D8",
"F  c #2027869FD7D7",
"G  c #29298B8BD9D9",
"H  c #23229393D8D8",
"J  c #23229E9DD9D9",
"K  c #34B49191DB5B",
"L  c #3A3A9494DCDB",
"P  c #3D3D9898DCDC",
"I  c #0E51ADCFD7D7",
"U  c #12BBA43CD7D7",
"Y  c #1047A9E0D7D7",
"T  c #1616A8A7D8D7",
"R  c #1D1CA8A8D9D8",
"E  c #0B7FB44CD7D7",
"W  c #06BABEA4D7D7",
"Q  c #089CBAB0D7D7",
"!  c #1716B1B0D8D8",
"~  c #1211BBBAD8D8",
"^  c #3D3DBCBCDFDE",
"/  c #44449C9CDEDD",
"(  c #4949A5A5DFDF",
")  c #4948ADADDFDF",
"_  c #4343B5B5DFDF",
"`  c #5454A2A2E0DF",
"'  c #5B5BA7A7E2E1",
"]  c #5454B8B7E2E2",
"[  c #6464ABABE462",
"{  c #6969AEAEE4E4",
"}  c #6968B2B2E4E4",
"|  c #6F6FB8B7E6E6",
" . c #7171B2B2E6E6",
".. c #7979B6B6E7E7",
"X. c #7070BEBEE6E6",
"o. c #0E0ECFCFCF79",
"O. c #1D1DD1D1C7C7",
"+. c #13BED0D0CC76",
"@. c #19C4D126C91E",
"#. c #0453C446D7D7",
"$. c #001CCDA4D7D4",
"%. c #0A09CFCFD4D3",
"&. c #0B0BC5C5D8D8",
"*. c #04D2CE9AD8D8",
"=. c #0889CFCFD918",
"-. c #1B1BC4C4DAD9",
";. c #0F0FD0D0D9D8",
":. c #1313D1D1DAD9",
">. c #18C3D2D1DBDB",
",. c #23F1D29FC35C",
"<. c #3737C4C3DEDD",
"1. c #3030CDCDDEDE",
"2. c #2370D4A0DD42",
"3. c #2A2AD5D4DE88",
"4. c #3333D7D7DFDF",
"5. c #3737D8D7E0E0",
"6. c #3D3DD9D9E0DF",
"7. c #7070E2E2DAD9",
"8. c #44C5DADAE2E2",
"9. c #4C71DCB7E3BE",
"0. c #5C5CD6D6E5E4",
"q. c #5353DD87E4E4",
"w. c #5D5DDFDEE6E6",
"e. c #6C6CC3C3E6E6",
"r. c #63E4CCCCE5E5",
"t. c #7070C6C6E6E5",
"y. c #7E7ECECEE9E9",
"u. c #7070D8D8E9E9",
"i. c #6363E161E767",
"p. c #7272E3E2E9E9",
"a. c #7D9AE61EEB79",
"s. c #814181418141",
"d. c #8CB18CB18CB1",
"f. c #945494549454",
"g. c gray60",
"h. c #ACD1ACD1ACD1",
"j. c #B37AB37AB37A",
"k. c #BB7BBB7BBB7B",
"l. c #8484DFDF8C0C",
"z. c #8C8CE0E08731",
"x. c #8B8BE0E08888",
"c. c #9360E2148350",
"v. c #8988E0DF9190",
"b. c #FFFFF5F58686",
"n. c #FFFFF6F69595",
"m. c #DEDDF2F2A09F",
"M. c #C0C0EDEDB3B3",
"N. c #FFFFF8F8A5A5",
"B. c #FFFFF9F9B5B5",
"V. c #8080BBBBE8E8",
"C. c #8888BEBEEAEA",
"Z. c #BEBEF0F0D6D6",
"A. c #8E8EC5C5EBEB",
"S. c #953FC670EC96",
"D. c #9D9DCD4DEEEE",
"F. c #8484D3D3EBEB",
"G. c #8F8FD7D7ECEC",
"H. c #8686DFDFECEC",
"J. c #8A8ADBDBECEC",
"K. c #9494D2D2EDED",
"L. c #9313DB5BED6D",
"P. c #A2A2D3D3EFEF",
"I. c #AD2DD353F0F0",
"U. c #B4B4D9D9F2F2",
"Y. c #BD3DDB5BF3F3",
"T. c #8282E690EC41",
"R. c #8989E8E8ED6D",
"E. c #9696EB6BEF6F",
"W. c #9A44EBEBEFEF",
"Q. c #A44EEE43F19B",
"!. c #AAAAEEAEF2F2",
"~. c #B636E666F3F3",
"^. c #BBBBE3E3F3F3",
"/. c #B0B0EAEAF2F2",
"(. c #B4E7F157F45A",
"). c #BBBBF2F2F4F4",
"_. c #C45DC45DC45D",
"`. c #CD66CD66CD66",
"'. c #D59CD59CD59C",
"]. c #DC64DC64DC64",
"[. c #FFFFFAFAC5C5",
"{. c #FFFFFCFCD5D5",
"}. c #C0C0DDDDF4F4",
"|. c #CFCFF5F5EFEF",
" X c #C2C2E2E2F4F4",
".X c #CBCBE3E3F6F6",
"XX c #C1C1EFEFF5F5",
"oX c #D2D2E7E7F7F7",
"OX c #D9D9EC6CF8F8",
"+X c #C3C3F449F64B",
"@X c #CF4FF676F7F7",
"#X c #D3D3F74CF923",
"$X c #DD87F4F4FA4F",
"%X c #DD5DF979FABA",
"&X c #E439E439E439",
"*X c gray93",
"=X c #EEEEFAFAE4E4",
"-X c #FFFFFDFDE4E4",
";X c #E1E1EFEFFAFA",
":X c #E3E3F3F3FAFA",
">X c #EB40F54AFC51",
",X c #E1E1F9F9FAFA",
"<X c #ECECFBFBFCFC",
"1X c #F40AF40AF40A",
"2X c #FFFFFEFEF6F6",
"3X c #F0F0F7F7FCFC",
"4X c #F5F5FD16FDCA",
"5X c #FFE7FFF3FFF2",
/* pixels */
"5X5X5X5X5X5X5X5X5X5X5X5X5X5X(.9.i.<X5X5X5X5X5X5X5X5X5X5X5X5X5X5X5X5X5X5X5X5X5X5Xb.e s d b.n.N.B.[.{.-X2X5X5X5X5X5X5X5X5X5X5X5X5X",
"5X5X5X5X5X5X5X5X5X5X5X<XR.2.$.$.$.:.E.5X5X5X5X5X5X5X5X5X5X5X5X5X5X5XQ.5.a.%X2Xf 0 0 0 0 0 0 0 0 0 0 0 0 w a p m.5X5X5X5X5X5X5X5X",
"5X5X5X5X5X5X5X5X5X).9.*.$.$.$.$.$.$.$.3.(.5X5X5X5X5X5X5X5X5X5X5XW.2.$.$.$.o.u 0 0 0 0 0 0 0 0 0 0 0 8 w 6 5 r , =X5X5X5X5X5X5X5X",
"5X5X5X5X5X5X<XR.2.$.$.$.$.$.$.$.$.$.$.$.$.9.%X5X5X5X5X5X5X5X!.3.$.$.$.$.+.t 0 0 0 0 0 0 0 0 0 0 0 7 q 5 r < 3 2 M.5X5X5X5X5X5X5X",
"5X5X5X5X@Xw.=.$.$.$.$.$.$.$.$.$.$.$.$.$.$.$.=.a.4X5X5X5X+X5.$.$.$.$.$.O.5 0 0 0 0 0 0 0 0 0 0 8 w 6 i r , 1 > c.v.4X5X5X5X5X5X5X",
"5X4XW.4.$.$.$.$.$.$.$.$.$.$.$.$.$.$.$.$.$.$.$.$.2.(.#X8.$.$.$.$.$.$.O.5 0 0 0 0 0 0 0 0 0 0 8 q 5 t < 3 2 c.z.k x Z.5X5X5X5X5X5X",
"a.>.$.$.$.$.$.$.$.$.$.$.$.$.$.$.$.$.$.$.$.$.$.$.$.$.*.$.$.$.$.$.$.g q 0 0 0 0 0 0 0 0 0 8 7 4 5 r < 1 > c.l.c z N B 5X5X5X5X5X5X",
"2.$.$.$.$.$.$.$.$.$.$.$.$.$.$.$.$.$.$.$.$.$.$.$.$.$.$.$.$.$.$.$.g q 0 0 0 0 0 0 0 0 0 8 q 6 t y 3 2 > x.k x l n b h |.5X5X5X5X5X",
"9.$.$.$.$.$.$.$.$.$.$.$.$.$.$.$.$.$.$.$.$.$.$.$.$.$.$.$.$.$.$.j w 0 0 0 0 0 0 0 0 9 7 4 5 r < 1 > c.l.c z l n v h g 7.5X5X5X5X5X",
"a.$.$.$.$.$.$.$.$.$.$.$.$.$.$.$.$.$.$.$.$.$.$.$.$.$.$.$.$.$.h 7 0 0 0 0 0 0 0 0 8 q 6 t < 3 2 c.z.k x l n b h j ,.@.%.#X5X5X5X5X",
"Q.$.$.$.$.$.$.$.$.$.$.$.$.$.$.$.$.$.$.$.$.$.$.$.$.$.$.$.$.v 8 0 0 0 0 0 0 0 9 7 q 5 r < 1 2 c.l.c z l n v h g O.+.*.$.8.5X5X5X5X",
"@X$.$.$.$.$.$.$.$.$.$.$.$.$.$.$.$.$.$.$.$.$.$.$.$.$.$.$.b 9 0 0 0 0 0 0 0 8 q 6 t < , 2 > z.l.x z m b M j ,.@.o.$.$.$.*.4X5X5X5X",
"4X*.$.$.$.$.$.$.$.$.$.$.                                                                                ,.+.%.$.$.$.$.$.T.5X5X5X",
"5X2.$.$.$.$.$.$.$.$.$.$.                                                                                +.$.$.$.$.$.$.$.>.5X5X5X",
"5X9.$.$.$.$.$.$.$.$.$.$.                                                                                $.$.$.$.$.$.$.$.$.+X5X5X",
"5Xa.$.$.$.$.$.$.$.$.$.$.                                                                                $.$.$.$.$.$.$.$.$.6.5X5X",
"5XQ.$.$.$.$.$.$.$.$.$.$.                                                        . X .                   $.$.$.$.$.$.$.$.$.*.4X5X",
"5X#X$.$.$.$.$.$.$.$.$.$.    . '.].].`.        . ].].'..         `.].].'..   $ k.1X5X5X1Xj.= .           $.$.$.$.$.$.$.#.$.#.a.5X",
"5X4X*.$.$.$.$.$.$.$.$.$.      j.5X5X5XO       % 5X5X5X%       + 5X5X5Xj.  : 5X5X5X5X5X5X5X5X&X#         $.$.$.$.#.#.#.#.W W -.5X",
"5X5X3.$.$.$.$.$.$.$.$.$.      - 5X5X5X-       f.5X5X5Xf.      - 5X5X5X- $ 5X5X5X5X5X5X5X5X5X5Xf.        $.#.#.#.#.W Q Q E E I XX",
"5X5Xq.$.$.$.$.$.$.$.$.$.      O 5X5X5Xh.      &X5X5X5X].      h.5X5X5XO h.5X5X5Xd.# $ d.&X5X]..         #.#.W Q Q E E E E I Y <.",
"5X5Xa.$.$.$.$.$.$.$.$.$.        '.5X5X*X    + 5X5X5X5X5X+     *X5X5X'.  ].5X5X_.        . : #           $.E E E I I I Y Y U U T ",
"5X5X!.$.$.$.$.$.$.$.$.$.        d.5X5X5X@   ; 5X5X5X5X5X;   @ 5X5X5Xd.  ].5X5X&Xo                       $.Q I Y Y Y U U U A A L.",
"5X5X#X$.$.$.$.$.$.$.$.$.        $ 5X5X5X;   k.5X5X5X5X5Xk.  ; 5X5X5X$   h.5X5X5X*Xf.% .                 $.#.Y U U A A S S S L.5X",
"5X5X4X=.$.$.$.$.$.$.#.$.        . 1X5X5Xj.. 4X5X5X`.5X5X4X. j.5X5X1X.   $ 5X5X5X5X5X5X1Xh.$             $.$.E A S S S Z Z F.5X5X",
"5X5X5X3.$.$.$.$.#.$.$.#.          j.5X5X1X& 5X5X5X# 5X5X5X& 1X5X5Xj.      & 1X5X5X5X5X5X5X5Xh.X         $.$.$.S Z Z C C y.5X5X5X",
"5X5X5Xq.$.#.$.$.#.$.#.$.          - 5X5X5X`.5X5X].  ].5X5X`.5X5X5X-         X ; _.5X5X5X5X5X5Xk.        $.$.$.E V V F t.5X5X5X5X",
"5X5X5XT.$.#.#.#.#.#.#.#.          o 5X5X5X5X5X5Xd.  d.5X5X5X5X5X5Xo               o = _.5X5X5X5X@       $.$.$.$.Z V X.4X5X5X5X5X",
"5X5X5X!.#.#.#.#.#.#.#.#.            '.5X5X5X5X5X$   % 5X5X5X5X5X'.        .             : 5X5X5X&       $.$.$.$.Q ] 5X5X5X5X5X5X",
"5X5X5X%X#.#.#.#.#.#.#.#.            d.5X5X5X5X1X.   . 1X5X5X5X5Xd.      O &X; .         % 5X5X5X&       $.$.$.$.$.).5X5X5X5X5X5X",
"5X5X5X4X&.#.#.#.#.#.W #.            $ 5X5X5X5Xk.      k.5X5X5X5X$     . '.5X5X&Xd.% @ * ].5X5X5XO       $.$.$.$.$.5.5X5X5X5X5X5X",
"5X5X5X5X1.#.#.#.#.W W W             . *X5X5X5X-       ; 5X5X5X*X      % 4X5X5X5X5X5X5X5X5X5X5Xj.        $.$.$.$.$.$.!.5X5X5X5X5X",
"5X5X5X5X0.W &.W W W W W               h.5X5X5X+       + 5X5X5Xh.        @ _.5X5X5X5X5X5X5X5X'.o         $.$.$.$.$.$.3.4X5X5X5X5X",
"5X5X5X5XH.W Q W W W Q Q               & `.`.k.          k.`.`.&             # g.].4X5X5X'.; .           $.$.$.$.$.$.$.E.5X5X5X5X",
"5X5X5X5X/.W Q Q Q Q Q Q                                                           . X .                 $.$.$.$.$.$.$.>.4X5X5X5X",
"5X5X5X5X%XQ Q Q Q Q Q Q                                                                                 $.$.$.$.$.$.$.$.T.5X5X5X",
"5X5X5X5X4X~ Q Q E Q E Q                                                                                 $.$.$.$.$.$.$.$.;.<X5X5X",
"5X5X5X5X5X<.Q E E E E E                                                                                 $.$.$.$.$.$.$.$.$.p.5X5X",
"5X5X5X5X5Xr.E E E E E I                                                                                 $.$.$.$.$.$.$.$.$.*.,X5X",
"5X5X5X5X5XJ.E E E E I E                                                                                 $.$.$.$.$.$.$.$.$.$.i.5X",
"5X5X5X5X5X~.E I I I E I                                                                                 $.$.$.$.$.$.$.$.$.$.$.#X",
"5X5X5X5X5X$XE I I I I I                                                                                 $.$.$.$.$.$.$.$.$.$.$.q.",
"5X5X5X5X5X5X! I I I I I                                                                                 $.$.$.$.$.$.$.$.$.$.:.W.",
"5X5X5X5X5X5X^ I I Y I Y                                                                                 $.$.$.$.$.$.$.$.=.a.4X5X",
"5X5X5X5X5X5Xr.U Y Y Y Y       o s.: s.s.s.s.: s.s.s.: s.s.s.=                                           $.$.$.$.$.$.$.8.%X5X5X5X",
"5X5X5X5X5X5XG.Y Y Y Y U       @ 5X5X5X5X5X5X5X5X5X5X5X5X5X5X`.                                          $.$.$.$.$.2.(.5X5X5X5X5X",
"5X5X5X5X5X5X~.U Y U U U       @ 5X5X5X5X5X5X5X5X5X5X5X5X5X5X`.                                          $.$.$.=.a.4X5X5X5X5X5X5X",
"5X5X5X5X5X5X$XU U U U U                                                                                 $.$.9.%X5X5X5X5X5X5X5X5X",
"5X5X5X5X5X5X5XR U U U U                                                                                 2.(.5X5X5X5X5X5X5X5X5X5X",
"5X5X5X5X5X5X5X_ A U U A                                                                                 4X5X5X5X5X5X5X5X5X5X5X5X",
"5X5X5X5X5X5X5Xe.U U A U                                                                                 5X5X5X5X5X5X5X5X5X5X5X5X",
"5X5X5X5X5X5X5XK.A A A A                                                                                 5X5X5X5X5X5X5X5X5X5X5X5X",
"5X5X5X5X5X5X5X^.A A S S S S A S S S S S S Z Z S S S W $.$.$.$.$.$.$.$.$.$.$.$.$.$.$.$.$.$.$.u.4X5X5X5X5X5X5X5X5X5X5X5X5X5X5X5X5X",
"5X5X5X5X5X5X5X:XA S S S S S S S S S Z S Z S Z Z Z Z Z Y $.$.$.$.$.$.$.$.$.$.$.$.$.$.$.$.E C 3X5X5X5X5X5X5X5X5X5X5X5X5X5X5X5X5X5X",
"5X5X5X5X5X5X5X5XJ S S S Z S S S Z Z Z S Z Z Z Z C Z Z Z S #.$.$.$.$.$.$.$.$.$.$.$.$.#.S V P 5X5X5X5X5X5X5X5X5X5X5X5X5X5X5X5X5X5X",
"5X5X5X5X5X5X5X5X) S S S Z S Z Z Z Z Z Z Z C Z C Z C C C C C I $.$.$.$.$.$.$.$.$.$.T F F V { 5X5X5X5X5X5X5X5X5X5X5X5X5X5X5X5X5X5X",
"5X5X5X5X5X5X5X5XX.S S Z Z Z Z Z Z Z Z Z Z C C Z C Z Z C C C V Z #.$.$.$.$.$.$.I V V F F F S.5X5X5X5X5X5X5X5X5X5X5X5X5X5X5X5X5X5X",
"5X5X5X5X5X5X5X5XP.D Z Z Z C C Z C Z C C C C C Z C C V C C V V V C I $.$.$.W S F F F F F F }.5X5X5X5X5X5X5X5X5X5X5X5X5X5X5X5X5X5X",
"5X5X5X5X5X5X5X5X5X5X:X XD.| ( H Z C C C Z C C C V C C V V V V V V F A #.U F F F F F F F F 3X5X5X5X5X5X5X5X5X5X5X5X5X5X5X5X5X5X5X",
"5X5X5X5X5X5X5X5X5X5X5X5X5X5X5X4XOXU.A.} / V C V C V V C V V F F F F F F F F F F F F F F L 5X5X5X5X5X5X5X5X5X5X5X5X5X5X5X5X5X5X5X",
"5X5X5X5X5X5X5X5X5X5X5X5X5X5X5X5X5X5X5X5X5X3XoXI.V.' K V F F F F F F F F F F F F F F F F [ 5X5X5X5X5X5X5X5X5X5X5X5X5X5X5X5X5X5X5X",
"5X5X5X5X5X5X5X5X5X5X5X5X5X5X5X5X5X5X5X5X5X5X5X5X5X5X5X3X.XD...` G F F F F F F F F F F F S.5X5X5X5X5X5X5X5X5X5X5X5X5X5X5X5X5X5X5X",
"5X5X5X5X5X5X5X5X5X5X5X5X5X5X5X5X5X5X5X5X5X5X5X5X5X5X5X5X5X5X5X5X5X;XY.S. ./ F F V F F F Y.5X5X5X5X5X5X5X5X5X5X5X5X5X5X5X5X5X5X5X",
"5X5X5X5X5X5X5X5X5X5X5X5X5X5X5X5X5X5X5X5X5X5X5X5X5X5X5X5X5X5X5X5X5X5X5X5X5X5X5XOXI.C.[ K >X5X5X5X5X5X5X5X5X5X5X5X5X5X5X5X5X5X5X5X"
};
